<svg xmlns="http://www.w3.org/2000/svg" version="1.1" xmlns:xlink="http://www.w3.org/1999/xlink" width="512" height="512" x="0" y="0" viewBox="0 0 512 512" style="enable-background:new 0 0 512 512" xml:space="preserve"><g><path d="M417.36 97.61h-15v-5c0-19.299-15.701-35-35-35s-35 15.701-35 35v5h-150v-5c0-19.299-15.701-35-35-35s-35 15.701-35 35v5h-15c-30.327 0-55 24.673-55 55v250c0 30.327 24.673 55 55 55h320c30.327 0 55-24.673 55-55v-250c0-30.327-24.672-55-55-55m-65-5c0-8.271 6.729-15 15-15s15 6.729 15 15v45h-30v-30zm-220 0c0-8.271 6.729-15 15-15s15 6.729 15 15v45h-30v-30zm320 310c0 19.299-15.701 35-35 35h-320c-19.299 0-35-15.701-35-35v-205h300c5.522 0 10-4.478 10-10s-4.478-10-10-10h-300v-25c0-19.299 15.701-35 35-35h15v30c0 5.523 4.477 10 10 10h50c5.523 0 10-4.477 10-10v-30h150v30c0 5.523 4.478 10 10 10h50c5.522 0 10-4.477 10-10v-30h15c19.299 0 35 15.701 35 35z" fill="#6d38ad" opacity="1" data-original="#000000"></path><path d="M102.36 247.61h20v20h-20zM142.36 247.61h20v20h-20zM182.36 247.61h20v20h-20zM222.36 247.61h20v20h-20zM262.36 247.61h20v20h-20zM302.36 247.61h20v20h-20zM102.36 287.61h20v20h-20zM142.36 287.61h20v20h-20zM182.36 287.61h20v20h-20zM222.36 287.61h20v20h-20zM262.36 287.61h20v20h-20zM102.36 327.61h20v20h-20zM142.36 327.61h20v20h-20zM182.36 327.61h20v20h-20zM102.36 367.61h20v20h-20zM142.36 367.61h20v20h-20zM182.36 367.61h20v20h-20zM222.36 367.61h20v20h-20zM262.36 367.61h20v20h-20zM392.36 197.61h10c5.522 0 10-4.478 10-10s-4.478-10-10-10h-10c-5.522 0-10 4.477-10 10s4.478 10 10 10M345.519 306.15c-5.302-.654-10.603.607-15.061 3.535-9.583 6.295-13.743 18.177-14.31 29.177-.579 11.245 2.006 23.762 10.314 31.916 3.999 3.925 9.212 6.458 14.835 6.791 5.715.337 11.212-1.487 15.655-5.078 8.966-7.243 12.403-19.525 12.403-30.637 0-10.359-2.941-21.454-10.486-28.932-3.623-3.591-8.25-6.142-13.35-6.772m1.914 52.359a7.43 7.43 0 0 1-7.008 1.42c-2.534-.785-4.289-2.923-5.462-5.207-2.449-4.767-2.813-10.511-2.465-15.768.314-4.747 1.474-10.504 5.262-13.779 3.615-3.126 8.577-1.981 11.276 1.677 3.129 4.24 3.886 9.874 3.886 15.003 0 5.614-.898 12.772-5.489 16.654M411.36 308.61h-16.485c-.61 2-1.951 2.76-3.067 3.758-1.393 1.244-2.863 2.619-4.391 3.692a37 37 0 0 1-4.831 2.9c-1.295.646-3.226 1.298-4.226 1.298v17.466c3 0 6.746-1.313 9.572-2.773 2.609-1.349 5.428-3.083 7.428-5.605v30.265h-15v17h44v-17h-13z" fill="#6d38ad" opacity="1" data-original="#000000"></path></g></svg>