<svg xmlns="http://www.w3.org/2000/svg" version="1.1" xmlns:xlink="http://www.w3.org/1999/xlink" width="512" height="512" x="0" y="0" viewBox="0 0 512 512" style="enable-background:new 0 0 512 512" xml:space="preserve"><g><path d="M445.36 107.61h-376c-17.673 0-32 14.327-32 32v236c0 17.673 14.327 32 32 32h376c17.673 0 32-14.327 32-32v-236c0-17.673-14.327-32-32-32m-188 176.876L72.8 127.61h369.12zm-200-143.751 120.492 102.418L57.36 372.914zm135.746 115.384 57.777 49.11c1.867 1.587 4.172 2.381 6.477 2.381s4.609-.794 6.477-2.381l57.777-49.11 122.1 131.491H71.007zm143.762-12.966L457.36 140.735v232.179z" fill="#6d38ad" opacity="1" data-original="#000000"></path></g></svg>