<svg xmlns="http://www.w3.org/2000/svg" version="1.1" xmlns:xlink="http://www.w3.org/1999/xlink" width="512" height="512" x="0" y="0" viewBox="0 0 48 48" style="enable-background:new 0 0 512 512" xml:space="preserve"><g><path d="m46.036 15.237-20.088-8.5a5.03 5.03 0 0 0-3.9 0l-20.088 8.5a3 3 0 0 0 0 5.526L9 23.74v9.573a4.95 4.95 0 0 0 2.4 4.275 24.96 24.96 0 0 0 25.2 0 4.95 4.95 0 0 0 2.4-4.275V23.74l3-1.27v4.742a2.488 2.488 0 0 0-.485 4.288 2.49 2.49 0 0 0-1.015 2V36a1 1 0 0 0 1 1h3a1 1 0 0 0 1-1v-2.5a2.49 2.49 0 0 0-1.015-2A2.488 2.488 0 0 0 44 27.212v-5.588l2.036-.861a3 3 0 0 0 0-5.526M43.5 29.5a.5.5 0 1 1-.5-.5.5.5 0 0 1 .5.5m0 5.5h-1v-1.5a.5.5 0 0 1 1 0zM37 33.313a2.95 2.95 0 0 1-1.415 2.551 22.97 22.97 0 0 1-23.17 0A2.95 2.95 0 0 1 11 33.313v-8.727l11.052 4.676a5.02 5.02 0 0 0 3.9 0L37 24.586zm8.257-14.392-20.088 8.5a3.02 3.02 0 0 1-2.338 0l-20.088-8.5a1 1 0 0 1 0-1.842l20.088-8.5a3.01 3.01 0 0 1 2.338 0l20.088 8.5a1 1 0 0 1 0 1.842" fill="#6d38ad" opacity="1" data-original="#000000"></path></g></svg>