<svg xmlns="http://www.w3.org/2000/svg" version="1.1" xmlns:xlink="http://www.w3.org/1999/xlink" width="512" height="512" x="0" y="0" viewBox="0 0 512 512" style="enable-background:new 0 0 512 512" xml:space="preserve"><g><path d="M476.898 287.411H35.102C21.238 287.411 10 276.172 10 262.309s11.238-25.102 25.102-25.102h441.797c13.863 0 25.102 11.238 25.102 25.102-.001 13.863-11.239 25.102-25.103 25.102M50.164 287.411l30.121 200.817h351.43l4.688-31.238M461.837 287.411l-16.326 108.823" style="stroke-width:20;stroke-linecap:round;stroke-linejoin:round;stroke-miterlimit:10" fill="none" stroke="#6d38ad" stroke-width="20" stroke-linecap="round" stroke-linejoin="round" stroke-miterlimit="1" data-original="#000000" opacity="1"></path><path d="m336.688 287.411 130.17 130.169c9.799 9.81 9.799 25.705 0 35.504-9.8 9.801-25.694 9.801-35.504 0L265.68 287.411M55.344 237.207c-13.514-27.061-7.791-58.197 14.178-71.822 6.075-3.765 12.793-5.803 19.721-6.306 3.524-5.983 8.344-11.095 14.418-14.86 23.557-14.609 56.882-3.534 74.413 24.74 12.32 19.871 16.186 47.152 9.218 66.691-.186.517-.362 1.018-.582 1.557" style="stroke-width:20;stroke-linecap:round;stroke-linejoin:round;stroke-miterlimit:10" fill="none" stroke="#6d38ad" stroke-width="20" stroke-linecap="round" stroke-linejoin="round" stroke-miterlimit="1" data-original="#000000" opacity="1"></path><path d="M60.133 112.139c20.41 4.092 26.487 20.71 26.458 42.666M321.009 237.207l1.788-4.006a33.84 33.84 0 0 0-2.29-31.84 33.85 33.85 0 0 1-2.289-31.84l4.899-10.975M268.103 133.998l-4.899 10.984a33.84 33.84 0 0 1-25.223 19.559 33.85 33.85 0 0 0-25.223 19.57l-23.013 51.6-.674 1.496" style="stroke-width:20;stroke-linecap:round;stroke-linejoin:round;stroke-miterlimit:10" fill="none" stroke="#6d38ad" stroke-width="20" stroke-linecap="round" stroke-linejoin="round" stroke-miterlimit="1" data-original="#000000" opacity="1"></path><path d="m323.119 158.547-55.018-24.546c-10.129-4.519-14.676-16.394-10.157-26.521s16.394-14.676 26.521-10.157l55.018 24.547c10.128 4.518 14.676 16.393 10.157 26.521s-16.392 14.676-26.521 10.156" style="stroke-width:20;stroke-linecap:round;stroke-linejoin:round;stroke-miterlimit:10" fill="none" stroke="#6d38ad" stroke-width="20" stroke-linecap="round" stroke-linejoin="round" stroke-miterlimit="1" data-original="#000000" opacity="1"></path><path d="M338.827 121.576c34.4-68.357 88.179-110.479 121.062-94.373 33.346 16.326 32.563 86.371-1.747 156.436-9.98 20.373-21.689 38.497-34.108 53.568M408.428 95.344l27.052 13.248M390.764 131.414l27.052 13.248" style="stroke-width:20;stroke-linecap:round;stroke-linejoin:round;stroke-miterlimit:10" fill="none" stroke="#6d38ad" stroke-width="20" stroke-linecap="round" stroke-linejoin="round" stroke-miterlimit="1" data-original="#000000" opacity="1"></path><path d="M129.105 137.833a40 40 0 0 1 15.754-15.372c-1.114-15.132 6.476-29.581 19.329-37.322-5.191-21.096 7.369-42.594 28.455-48.326a40 40 0 0 1 20.242-.221c13.375-11.978 33.106-13.643 48.357-3.946 15.834-10.065 36.667-7.925 50.104 5.593 14.9-.482 28.928 7.4 36.247 20.353a40.2 40.2 0 0 1 24.128 12.049M135.51 448.065c-11.09 0-20.081-8.99-20.081-20.082v-80.326c0-11.092 8.991-20.082 20.081-20.082 11.092 0 20.082 8.99 20.082 20.082v80.326c0 11.091-8.99 20.082-20.082 20.082M215.837 448.065c-11.091 0-20.081-8.99-20.081-20.082v-80.326c0-11.092 8.99-20.082 20.081-20.082s20.081 8.99 20.081 20.082v80.326c0 11.091-8.99 20.082-20.081 20.082M296.163 448.065c-11.091 0-20.081-8.99-20.081-20.082v-80.326c0-11.092 8.99-20.082 20.081-20.082s20.082 8.99 20.082 20.082v80.326c0 11.091-8.991 20.082-20.082 20.082M396.571 418.303v9.68c0 11.096-8.987 20.082-20.081 20.082-11.096 0-20.082-8.986-20.082-20.082V378.14" style="stroke-width:20;stroke-linecap:round;stroke-linejoin:round;stroke-miterlimit:10" fill="none" stroke="#6d38ad" stroke-width="20" stroke-linecap="round" stroke-linejoin="round" stroke-miterlimit="1" data-original="#000000" opacity="1"></path></g></svg>