<svg xmlns="http://www.w3.org/2000/svg" version="1.1" xmlns:xlink="http://www.w3.org/1999/xlink" width="512" height="512" x="0" y="0" viewBox="0 0 448.152 448.152" style="enable-background:new 0 0 512 512" xml:space="preserve"><g><path d="M448.101 129.622c0-40.551-25.121-73.543-56-73.543-23.609 0-43.808 19.313-52.032 46.518-63.365-60.579-162.681-62.182-227.968-3.68V79.501c-.359-13.3-11.431-23.791-24.731-23.432a24.09 24.09 0 0 0-16.322 6.985c-8.83-7.003-21.338-6.936-30.094.16-9.549-9.263-24.8-9.032-34.063.518a24.1 24.1 0 0 0-6.79 16.125l.02 66.578a44.97 44.97 0 0 0 5.688 25.398 46.97 46.97 0 0 0 18.461 17.91 10.36 10.36 0 0 1 5.25 6.941 50.1 50.1 0 0 1 1.199 15.148c-6.477 77.84-8.934 132.207-6.742 149.164a34.9 34.9 0 0 0 9.477 21.84c12.506 12.146 32.402 12.147 44.91.004a33.55 33.55 0 0 0 9.512-22.133c.631-12.873.584-25.77-.143-38.637 54.071 75.341 158.979 92.583 234.32 38.513a168 168 0 0 0 41.063-42.167c-.811 25.513-1.158 42.106-1.166 42.53-.537 16.653 12.527 30.588 29.18 31.125s30.588-12.527 31.125-29.18q.031-.973 0-1.945v-.156c-.016-.754-1.523-76.301-6.023-155.672a15.94 15.94 0 0 1 5.727-13.172 80.58 80.58 0 0 0 26.142-62.324M71.945 359.231a18.2 18.2 0 0 1-4.555 11.965c-6.35 6.323-16.617 6.321-22.965-.004a20.96 20.96 0 0 1-4.582-12.25c-2.023-15.648.527-70.148 6.82-145.785a66.6 66.6 0 0 0-1.484-19.75 26.35 26.35 0 0 0-13.23-17.703 30.5 30.5 0 0 1-12.219-11.762 29.62 29.62 0 0 1-3.629-16.938V79.856a8.029 8.029 0 0 1 16 0v49.285a8 8 0 0 0 16 0V81.099a8.045 8.045 0 0 1 16 0v48.043a8 8 0 0 0 16 0V79.501a8.029 8.029 0 0 1 16 0l.011 39.174c.002.044-.003.086 0 .13l.008 28.415a28.95 28.95 0 0 1-3.648 16.367 30.5 30.5 0 0 1-12.219 11.762 26.34 26.34 0 0 0-13.227 17.691 89.7 89.7 0 0 0-1.457 19.922c5.591 84.434 7.673 132.277 6.376 146.269m152.156 16.848c-59.213-.089-113.011-34.481-137.948-88.187-1.104-20.848-2.632-46.008-4.614-75.985a74.7 74.7 0 0 1 1.148-15.59 10.35 10.35 0 0 1 5.242-6.93 46.94 46.94 0 0 0 18.465-17.91 44.34 44.34 0 0 0 5.707-24.828v-25.146c56.422-61.85 152.301-66.249 214.15-9.827a152 152 0 0 1 10.167 10.201 97 97 0 0 0-.317 7.745 80.57 80.57 0 0 0 26.156 62.336 15.94 15.94 0 0 1 5.727 13.16c-1.528 27.329-2.709 54.048-3.611 77.508-23.502 56.696-78.898 93.602-140.272 93.453m187.684-196.48a32 32 0 0 0-11.532 26.43c4.414 77.867 5.941 152.055 6 154.988.489 7.815-5.45 14.546-13.264 15.035s-14.546-5.45-15.035-13.264a14 14 0 0 1-.006-1.677c.012-.75 1.57-75.699 6.012-155.106a32 32 0 0 0-11.531-26.398 65.47 65.47 0 0 1-20.328-49.984c0-31.73 17.945-57.543 40-57.543s40 25.812 40 57.543a65.48 65.48 0 0 1-20.316 49.976" fill="#6d38ad" opacity="1" data-original="#000000"></path><path d="M224.101 304.079c-44.183 0-80-35.817-80-80s35.817-80 80-80 80 35.817 80 80c-.049 44.163-35.837 79.951-80 80m0-144c-35.346 0-64 28.654-64 64s28.654 64 64 64 64-28.654 64-64c-.04-35.329-28.67-63.959-64-64" fill="#6d38ad" opacity="1" data-original="#000000"></path></g></svg>