<svg xmlns="http://www.w3.org/2000/svg" version="1.1" xmlns:xlink="http://www.w3.org/1999/xlink" width="512" height="512" x="0" y="0" viewBox="0 0 480.011 480.011" style="enable-background:new 0 0 512 512" xml:space="preserve" class=""><g><path d="M479.699 269.776a7.87 7.87 0 0 0-.216-4.2c-5.486-79.265-71.075-140.943-150.528-141.552C302.437 35.134 208.88-15.43 119.99 11.088 31.099 37.606-19.464 131.163 7.053 220.053a167.96 167.96 0 0 0 92.158 105.211 214 214 0 0 0-43.576 30.872l-22.824 20.92c-9.772 8.956-10.434 24.137-1.478 33.909a24 24 0 0 0 3.286 2.979l25.728 19.296a215 215 0 0 0 128.216 42.736h22.896a215 215 0 0 0 128.2-42.736l9.056-6.792c75.275-10.194 131.394-74.51 131.296-150.472 0-2.096-.232-4.128-.312-6.2m-41.952-73.8a135 135 0 0 1 25.6 67.376l-6.784 3.392-39.28-26.184 12.76-44.584zm-54.128-43.96a136.5 136.5 0 0 1 40.624 27.96h-.232a8 8 0 0 0-7.688 5.808l-14.992 52.464-25.704 11.856-39.616-26.408v-31.552l44.592-31.2a8 8 0 0 0 3.016-8.928M202.915 189.84a8 8 0 0 0-2.064 2.56 8 8 0 0 0-.232.872l-21.296-21.296 25.416-25.416a169 169 0 0 0 21.672 16.704h-.016a152.8 152.8 0 0 0-23.48 26.576m-10.528 17.816a150.75 150.75 0 0 0-15.848 57.6 166.6 166.6 0 0 0-33.872-56.632l25.328-25.36zm18.888-1.104 6.4 3.2 12.912 32.272-32.176 32.216-6.176-3.088a134.95 134.95 0 0 1 19.04-64.6m-14.848 84.544a8 8 0 0 0 9.232-1.504l36.272-36.264 31.464 12.584 14.92 52.216q.219.609.544 1.168a213.3 213.3 0 0 0-88.848-19.32c-1.888 0-3.768.08-5.656.128l-.016-.04c-.64-3.584-1.248-7.2-1.6-10.816zm82.648-40.112-32.912-13.168-14.72-36.8a8 8 0 0 0-3.856-4.192l-7.2-3.616a136.6 136.6 0 0 1 52.016-41.232 8 8 0 0 0 3.016 8.928l44.592 31.24v31.552zm48.936-13.408 37.872 25.304c.064.168.048.344.128.512q.221.416.496.8l-12.528 43.784h-51.936l-12.736-44.584zm36.424-92.496v.04l2.08 6.168-38.504 26.92-38.504-26.96 2.08-6.168a132.53 132.53 0 0 1 72.848 0m-51.928-20.304a150.94 150.94 0 0 0-72.904 27.816 152.4 152.4 0 0 1-23.536-17.352l64.888-64.864a151.8 151.8 0 0 1 31.552 54.4m-42.96-65.656-64.8 64.8a151.54 151.54 0 0 1-38.632-90.824l-.928-12.912a151.41 151.41 0 0 1 104.36 38.936M149.235 21.352l.92 12.88a167.44 167.44 0 0 0 43.256 101.032l-25.4 25.4L66.475 59.12a151.04 151.04 0 0 1 82.76-37.768m-94.072 49.08 101.536 101.544-25.336 25.336a167.48 167.48 0 0 0-101.096-43.2l-12.888-.92a151.04 151.04 0 0 1 37.784-82.76m-38.944 98.72 12.912.92a151.63 151.63 0 0 1 90.88 38.568l-64.872 64.88a151.45 151.45 0 0 1-38.92-104.368m50.144 115.792 65-64.968a151.3 151.3 0 0 1 37.536 82.32 212.8 212.8 0 0 0-49.736 13.6 152.4 152.4 0 0 1-52.8-30.952m290.552 115.208a8 8 0 0 1-1.096.993l-25.768 19.304a198.9 198.9 0 0 1-118.592 39.528h-22.896a198.9 198.9 0 0 1-118.592-39.528l-25.736-19.304a8 8 0 0 1-.608-12.296l22.784-20.92a197.4 197.4 0 0 1 55.2-35.536 7.94 7.94 0 0 0 3.344-1.48c70.836-29.257 152.207-14.822 208.656 37.016l22.816 20.92a8 8 0 0 1 .488 11.303m-12.528-44.016a214 214 0 0 0-46.032-32.16h58.344l17.6 17.6-14.416 28.8zm28.48 48.168a22.82 22.82 0 0 0-1.272-21.6l17.36-34.728h46.112l3.56 7.12a135.45 135.45 0 0 1-65.76 49.208m75.6-65.264-1.256-2.64a8 8 0 0 0-7.2-4.424h-52.688l-18.328-18.328 14.104-49.368 24.2-11.16 44.272 29.512a8 8 0 0 0 8 .504l4.184-2.096a135.55 135.55 0 0 1-15.288 58" fill="#6d38ad" opacity="1" data-original="#000000" class=""></path><path d="M272.011 379.976h-8v-8a8 8 0 0 0-16 0v8h-16v-8a8 8 0 0 0-16 0v8h-16v-8a8 8 0 0 0-16 0v8h-16v-8a8 8 0 0 0-16 0v8h-16v-8a8 8 0 0 0-16 0v8h-8a8 8 0 0 0 0 16h8v8a8 8 0 0 0 16 0v-8h16v8a8 8 0 0 0 16 0v-8h16v8a8 8 0 0 0 16 0v-8h16v8a8 8 0 0 0 16 0v-8h16v8a8 8 0 0 0 16 0v-8h8a8 8 0 0 0 0-16" fill="#6d38ad" opacity="1" data-original="#000000" class=""></path></g></svg>