<?xml version="1.0" encoding="UTF-8" standalone="no"?>
<svg
   xmlns:svg="http://www.w3.org/2000/svg"
   xmlns="http://www.w3.org/2000/svg"
   xmlns:xlink="http://www.w3.org/1999/xlink"
   xmlns:sodipodi="http://sodipodi.sourceforge.net/DTD/sodipodi-0.dtd"
   xmlns:inkscape="http://www.inkscape.org/namespaces/inkscape"
   version="1.1"
   id="Capa_1"
   x="0px"
   y="0px"
   viewBox="0 0 800.10016 800.09503"
   xml:space="preserve"
   sodipodi:docname="WhatsApp_iOS_7_Icon.svg"
   width="800.10016"
   height="800.09503"
   inkscape:version="1.0.2-2 (e86c870879, 2021-01-15)"><defs
     id="defs18">
	
	
	
		<linearGradient
   id="path58_1_"
   gradientUnits="userSpaceOnUse"
   x1="1550.4911"
   y1="1454.9548"
   x2="1570.7667"
   y2="1454.9548"
   gradientTransform="matrix(0,-25.664674,-25.664674,0,36864.797,40619.457)">
		<stop
   offset="0"
   style="stop-color:#20B038"
   id="stop39" />
		<stop
   offset="1"
   style="stop-color:#60D66A"
   id="stop41" />
	</linearGradient>
	
	
		<linearGradient
   id="path60_1_"
   gradientUnits="userSpaceOnUse"
   x1="1555.2141"
   y1="1463.4432"
   x2="1574.7772"
   y2="1449.036"
   gradientTransform="matrix(0,-26.584655,-26.584655,0,38184.809,42079.558)">
		<stop
   offset="0"
   style="stop-color:#F9F9F9"
   id="stop45" />
		<stop
   offset="1"
   style="stop-color:#FFFFFF"
   id="stop47" />
	</linearGradient>
	
	
</defs><sodipodi:namedview
     pagecolor="#ffffff"
     bordercolor="#666666"
     borderopacity="1"
     objecttolerance="10"
     gridtolerance="10"
     guidetolerance="10"
     inkscape:pageopacity="0"
     inkscape:pageshadow="2"
     inkscape:window-width="1920"
     inkscape:window-height="1001"
     id="namedview16"
     showgrid="false"
     inkscape:zoom="0.57875767"
     inkscape:cx="-150.34056"
     inkscape:cy="537.86711"
     inkscape:window-x="-9"
     inkscape:window-y="-9"
     inkscape:window-maximized="1"
     inkscape:current-layer="g909"
     fit-margin-top="0"
     fit-margin-left="0"
     fit-margin-right="0"
     fit-margin-bottom="0"
     inkscape:document-rotation="0"
     inkscape:snap-page="false"
     inkscape:object-paths="true"
     inkscape:snap-intersection-paths="true"
     inkscape:snap-bbox="true"
     inkscape:bbox-paths="true"
     inkscape:bbox-nodes="true"
     inkscape:snap-bbox-edge-midpoints="true" /><linearGradient
     id="SVGID_1_"
     gradientUnits="userSpaceOnUse"
     x1="400"
     y1="0"
     x2="400"
     y2="800"
     xlink:href="#path58_1_"
     gradientTransform="matrix(1.0000002,0,0,1.0001188,-8.5768554e-5,0)">
	<stop
   offset="0"
   style="stop-color:#60fc7c;stop-opacity:1"
   id="stop6" />
	<stop
   offset="1"
   style="stop-color:#05b723;stop-opacity:1"
   id="stop8" />
</linearGradient><g
     id="g909"
     transform="translate(8.5595431e-5)"><path
       class="st0"
       d="m 800.10007,549.80757 c 0,9.56673 0,19.1161 -0.072,28.66548 -0.048,8.05351 -0.13922,16.10695 -0.34804,24.1431 -0.22163,17.60713 -1.76813,35.17266 -4.62663,52.5476 -2.97428,17.39414 -8.52277,34.23166 -16.47148,49.97337 -16.11095,31.62935 -41.82424,57.34376 -73.45223,73.45535 -15.73443,7.93815 -32.56515,13.48416 -49.93633,16.45484 -17.39342,2.87002 -34.96071,4.41812 -52.5628,4.62687 -8.04575,0.20802 -16.09359,0.32963 -24.14198,0.36484 -9.56634,0.056 -19.11523,0.056 -28.6642,0.056 h -299.5486 c -9.54897,0 -19.09794,0 -28.66428,-0.048 -8.04831,-0.032 -16.09615,-0.14562 -24.14198,-0.34804 -17.61273,-0.22483 -35.18346,-1.77717 -52.5628,-4.64423 -17.37598,-2.95707 -34.2127,-8.52325 -49.93633,-16.455 C 63.345757,762.49168 37.633026,736.78391 21.518154,705.16176 13.571851,689.41029 8.0202317,672.56117 5.0466789,655.17103 2.1882597,637.80193 0.64167615,620.24216 0.42004985,602.6408 0.21122507,594.58728 0.10721273,586.53384 0.07200855,578.48033 0,568.91359 0,559.38158 0,549.81485 V 250.28802 c 0,-9.56681 0,-19.13355 0.07200855,-28.70028 0.0320038,-8.03615 0.13921652,-16.08959 0.3480413,-24.12566 C 0.64167615,179.86071 2.1884997,162.30094 5.0466789,144.93176 8.0209518,127.5377 13.569451,110.70018 21.518154,94.941106 37.629106,63.311752 63.342397,37.597261 94.97039,21.485669 110.70034,13.551608 127.52474,8.00575 144.88936,5.030837 162.2827,2.1781785 179.84999,0.63015477 197.45207,0.40404794 205.50527,0.19522316 213.55839,0.09121082 221.59406,0.05600664 231.16047,0 240.72681,0 250.25834,0 h 299.54859 c 9.56641,0 19.13275,0 28.68172,0.05600664 8.04831,0.0320038 16.09607,0.14561728 24.14198,0.3480413 17.60209,0.22642687 35.16938,1.77413056 52.54536,4.62678906 17.39334,2.9744329 34.21278,8.523171 49.95377,16.454832 31.63583,16.106711 57.35608,41.822003 73.46959,73.455437 7.93959,15.746594 13.48536,32.589794 16.45412,49.973294 2.85866,17.37494 4.40524,34.94047 4.62663,52.54768 0.20882,8.05343 0.31283,16.10695 0.34804,24.14302 0.072,9.56674 0.072,19.11611 0.072,28.66548 z"
       id="path11"
       style="fill:url(#SVGID_1_);fill-opacity:1;stroke-width:1.00006"
       sodipodi:nodetypes="ccccc" /><path
       id="path60"
       inkscape:connector-curvature="0"
       class="st3"
       d="m 122.81314,392.91206 c 0,50.43617 13.15069,99.69184 38.23065,143.08568 l -40.63281,148.33689 151.82348,-39.81159 c 41.81354,22.79602 88.91995,34.84534 136.84064,34.84534 h 0.12213 c 157.80847,0 286.30269,-128.43111 286.38408,-286.2528 0.0407,-76.48875 -29.72138,-148.41832 -83.78992,-202.51813 C 557.68214,136.53833 485.78075,106.74068 409.19723,106.7 c -157.8899,0 -286.34339,128.39037 -286.38409,286.21206 m 90.38564,135.63626 -5.65928,-8.99629 c -23.81783,-37.89836 -36.39855,-81.65855 -36.39855,-126.59925 0.0407,-131.1992 106.83423,-237.93338 238.13772,-237.93338 63.59567,0.0407 123.32348,24.79066 168.27202,69.77207 44.94856,44.98141 69.6621,104.73951 69.6621,168.32411 -0.0814,131.19921 -106.83421,237.93339 -238.05626,237.93339 h -0.0814 c -42.70926,-0.0407 -84.60425,-11.47943 -121.16566,-33.17634 l -8.71284,-5.1698 -90.10068,23.61014 z m 195.99845,150.86076 v 0 0 c 0,0 -0.0407,0 0,0"
       style="fill:#ffffff;stroke-width:0.407107" /><path
       id="path62"
       inkscape:connector-curvature="0"
       class="st4"
       d="m 337.35373,273.4262 c -5.36784,-11.91292 -10.97968,-12.15686 -16.06286,-12.36017 -4.14788,-0.16264 -8.94641,-0.16264 -13.70427,-0.16264 -4.75786,0 -12.52497,1.78898 -19.07213,8.94486 -6.54713,7.15587 -25.00927,24.43571 -25.00927,59.60523 0,35.16952 25.61926,69.1193 29.19782,73.91698 3.57858,4.75704 49.44926,79.20258 122.07781,107.86676 60.38826,23.78515 72.66925,19.06877 85.76353,17.8897 13.0943,-1.17912 42.29213,-17.27983 48.22928,-33.94977 5.93719,-16.66995 5.93719,-30.98171 4.18854,-33.99045 -1.78927,-2.96805 -6.54713,-4.75702 -13.70426,-8.33495 -7.15713,-3.57794 -42.29211,-20.85779 -48.83926,-23.25662 -6.54713,-2.39883 -11.30499,-3.57794 -16.10354,3.57795 -4.75786,7.15588 -18.46214,23.2566 -22.61001,28.01362 -4.14788,4.75706 -8.33641,5.36693 -15.49354,1.789 -7.15715,-3.57795 -30.1738,-11.14042 -57.46035,-35.45415 -21.22739,-18.94681 -35.58231,-42.3254 -39.77086,-49.48128 -4.14788,-7.15586 -0.44731,-11.01842 3.13123,-14.59635 3.2126,-3.21204 7.15714,-8.33499 10.7357,-12.5228 3.57857,-4.18781 4.75786,-7.15588 7.15715,-11.91291 2.39925,-4.75704 1.17928,-8.94485 -0.61002,-12.52279 -1.82991,-3.57794 -15.69686,-38.91009 -22.04069,-53.05922"
       style="fill:#ffffff;stroke-width:0.406619" /></g></svg>
