<svg width="1024" height="1024" viewBox="0 0 1024 1024" xmlns="http://www.w3.org/2000/svg" preserveAspectRatio="xMidYMid meet"><svg x="307" y="601" width="410" height="106" xmlns="http://www.w3.org/2000/svg" preserveAspectRatio="none"><svg version="1.1" xmlns="http://www.w3.org/2000/svg" style="display: block;" width="410" height="106" viewBox="288.74 79.21 1466.34 379.10" preserveAspectRatio="none"><g id="svg-group-2f9bf988-ec1e-42ba-8abc-ddaed3b3b701">
<path transform="translate(0,0)" fill="rgba(0, 0, 0, 1)" d="M 1167.98 153.421 C 1221.36 153.612 1271.99 174.788 1280.38 233.341 C 1282.67 249.338 1282.21 263.62 1282.22 279.675 L 1282.24 340.529 L 1282.59 391.854 C 1282.66 401.458 1282.89 410.579 1282.35 420.305 C 1281.01 444.144 1254.71 453.119 1236.57 439.942 C 1226.04 432.294 1224.93 421.928 1223.33 409.965 C 1220.01 413.63 1216.8 418.441 1213.16 421.704 C 1179.99 451.464 1121.27 457.55 1083.21 435.213 C 1066.46 425.278 1054.31 409.11 1049.44 390.246 C 1047.28 383.578 1045.95 376.665 1045.51 369.668 C 1043.9 344.545 1051.21 319.318 1067.96 300.297 C 1097.57 266.685 1141.46 262.301 1183.44 262.167 C 1193.59 262.135 1204.29 263.221 1214.36 262.496 C 1217.28 262.286 1219.86 261.965 1221.82 259.543 C 1224.55 256.171 1224.54 250.621 1224.13 246.54 C 1222.99 235.284 1218.59 225.546 1209.69 218.391 C 1201.44 211.76 1190.44 208.861 1180.09 207.517 C 1123.96 200.23 1113.96 242.542 1090.38 244.86 C 1084.03 245.484 1078.54 243.194 1073.7 239.175 C 1068.46 234.822 1059.86 225.272 1059.24 218.24 C 1058.37 208.363 1063.18 199.839 1069.33 192.56 C 1093.2 164.304 1133.09 156.351 1167.98 153.421 z M 1164.76 395.121 C 1197.1 391.238 1221.68 361.802 1222.6 329.896 C 1222.77 323.91 1222.79 317.935 1222.73 311.948 C 1204.97 312.013 1186.33 311.812 1168.65 312.433 C 1147.15 314.321 1132.04 316.349 1117.16 333.768 C 1103.92 349.258 1102.91 373.97 1119.1 387.603 C 1130.59 397.278 1146.88 397.035 1160.97 395.646 C 1162.24 395.516 1163.5 395.34 1164.76 395.121 z"/>
<path transform="translate(0,0)" fill="rgba(0, 0, 0, 1)" d="M 1626.66 153.441 C 1660 151.198 1702.93 163.955 1724.13 191.342 C 1732.95 202.898 1738.96 216.34 1741.7 230.613 C 1744.17 244.078 1743.71 264.455 1743.66 278.441 L 1743.49 340.316 L 1743.75 389.518 C 1743.88 413.443 1747.68 448.718 1710.68 445.106 C 1701.41 444.005 1690.46 436.43 1688.73 426.804 C 1687.5 419.973 1689.08 415.369 1684.56 409.392 C 1684.96 409.337 1669.67 424.186 1666.32 426.656 C 1629.23 454.009 1567.53 458.309 1533.17 424.213 C 1524.8 415.918 1515.58 403.116 1512.72 392.265 C 1508.46 377.315 1507.15 368.159 1508.06 352.237 C 1508.82 336.475 1513.67 321.182 1522.14 307.869 C 1563.93 242.378 1670.11 271.468 1682.64 259.589 C 1684.68 257.649 1685.28 254.833 1685.38 252.127 C 1685.8 241.617 1681.17 230.076 1673.96 222.478 C 1662.64 210.537 1646.61 207.474 1630.73 207.057 C 1601.98 206.302 1589.48 215.565 1569.34 234.631 C 1563.38 240.28 1556.26 245.694 1547.63 245.384 C 1536.06 244.97 1527.99 235.864 1520.67 228.056 C 1512.76 194.175 1542.95 176.149 1569.86 164.567 C 1586.97 157.204 1608.25 155.048 1626.66 153.441 z M 1619.22 394.954 C 1641.65 391.674 1655.95 383.583 1670.06 365.229 C 1682.73 348.754 1683.66 332.673 1684.32 312.852 C 1667.1 312.098 1650.43 312.307 1633.22 312.453 C 1612.05 313.776 1595.53 314.422 1579.78 331.741 C 1566.11 346.789 1564.21 372.44 1580.22 386.599 C 1591.34 396.436 1605.31 395.529 1619.22 394.954 z"/>
<path transform="translate(0,0)" fill="rgba(0, 0, 0, 1)" d="M 624.491 159.284 C 639.995 157.721 655.031 168.972 656.744 184.572 C 658.495 200.525 657.287 217.179 657.308 233.304 C 657.352 267.804 656.959 302.325 657.213 336.826 C 657.341 353.713 658.29 368.525 671.41 380.89 C 685.24 393.924 701.086 393.788 718.721 392.219 C 746.943 389.82 766.48 363.379 770.12 336.897 C 771.937 323.676 771.18 307.513 771.153 293.93 L 770.961 223.085 C 770.926 212.276 770.838 201.07 771.041 190.023 C 771.056 160.114 801.005 148.774 822.515 167.991 C 832.373 176.799 830.218 204.652 830.197 216.958 L 830.071 274.25 L 830.269 373.092 C 830.311 387.555 831.275 406.661 829.868 419.998 C 827.794 439.647 799.249 452.898 783.4 438.825 C 773.891 430.382 774.166 422.457 772.574 411.301 C 768.495 414.84 765.326 419.232 761.284 422.868 C 728.177 452.652 673.166 457.39 636.067 432.451 C 617.934 420.262 603.036 397.305 599.954 375.564 C 596.187 348.994 599.315 320.139 598.327 293.253 C 596.725 258.225 596.502 223.118 597.183 188.063 C 597.521 170.657 608.111 162.091 624.491 159.284 z"/>
<path transform="translate(0,0)" fill="rgba(0, 0, 0, 1)" d="M 429.704 155.332 C 435.466 154.701 451.23 154.759 457.21 155.042 C 489.628 156.572 523.535 171.564 545.549 195.602 C 552.382 203.219 560 213.948 559.16 224.632 C 558.177 237.121 544.292 247.531 533.112 250.573 C 513.455 256.208 504.762 234.301 491.631 224.623 C 464.099 204.33 421.419 206.836 395.831 229.334 C 376.616 246.229 366.977 265.843 365.256 291.46 C 363.476 318.34 368.225 344.553 386.484 365.264 C 407.748 389.382 438.883 397.804 469.509 388.651 C 481.283 385.132 490.691 377.57 499.175 368.929 C 504.511 363.494 508.829 357.876 514.564 352.809 C 533.101 340.686 556.439 353.925 562.765 373.716 C 548.933 416.408 506.782 442.09 463.624 447.5 C 382.087 457.721 312.489 405.258 304.427 322.349 C 296.132 237.05 341.885 166.567 429.704 155.332 z"/>
<path transform="translate(0,0)" fill="rgba(0, 0, 0, 1)" d="M 1379.32 79.2065 C 1419.84 79.2267 1414.78 114.555 1413.68 142.981 C 1412.8 159.167 1413.83 163.306 1430.91 162.556 C 1458.97 161.325 1478.89 153.249 1488.38 186.189 C 1487 192.412 1486.03 198.505 1482.29 203.819 C 1471.28 219.463 1448.78 216.644 1432.1 215.475 C 1428.02 215.19 1423.21 214.372 1419.2 215.195 C 1418.11 215.419 1416.26 216.166 1415.66 217.172 C 1413.34 221.069 1413.75 349.485 1414.13 360.831 C 1414.27 365.114 1414.66 369.482 1415.65 373.655 C 1423.58 407.212 1457.28 380.467 1476.1 392.374 C 1484.66 397.782 1486.55 407.538 1488.6 416.67 C 1484.98 426.653 1484.33 429.343 1476.51 436.726 C 1447.46 456.22 1391.31 450.038 1369.67 421.157 C 1352.65 398.441 1354.83 372.55 1354.93 346.09 L 1355.07 282.633 C 1355.01 265.191 1352.94 230.577 1354.62 216.028 C 1337.87 216.099 1329.21 216.198 1312.6 213.375 C 1306.51 208.493 1303.24 204.608 1299.14 198.188 C 1298.63 190.151 1298.64 185.898 1299.2 177.865 C 1318.26 148.161 1352.81 171.959 1354.86 155.512 C 1356.67 140.999 1353.73 113.578 1355.72 96.4365 C 1363.48 85.342 1367.14 83.5596 1379.32 79.2065 z"/>
<path transform="translate(0,0)" fill="rgba(0, 0, 0, 1)" d="M 1005.07 155.334 C 1041.53 155.558 1044.95 196.176 1019.87 215.657 C 1006.06 218.26 993.425 218.222 980.58 225.306 C 938.018 248.777 939.558 303.595 940.392 345.626 L 940.872 393.009 C 941.007 411.568 943.828 444.05 917.425 445.127 C 904.102 445.671 897.7 443.949 887.69 434.821 C 879.105 425.351 881.727 400.628 881.732 387.726 L 881.806 312.094 L 881.738 233.294 C 881.697 217.826 881.757 202.403 881.92 186.907 C 882.162 163.929 906.237 152.109 925.396 163.512 C 940.353 172.413 936.961 182.033 940.436 195.791 C 943.256 196.735 956.308 179.122 959.85 176.359 C 974.455 164.968 986.468 157.478 1005.07 155.334 z"/>
</g></svg></svg><svg x="374" y="318" width="278" height="258" xmlns="http://www.w3.org/2000/svg" preserveAspectRatio="none"><svg version="1.1" xmlns="http://www.w3.org/2000/svg" style="display: block;" width="278" height="258" viewBox="-0.18 0.00 2048.36 1901.00" preserveAspectRatio="none"><g id="svg-group-8fa8ec58-7f1d-4437-a99a-9f2cac3d1798">
<path transform="translate(0,0)" fill="rgba(0, 0, 0, 1)" d="M 1445.46 635.271 C 1447.75 635.138 1450.05 635.045 1452.35 634.99 C 1486.64 634.264 1516.9 656.949 1517.67 692.935 C 1518.37 724.93 1480.96 756.487 1459.33 778.124 L 1403.94 833.541 C 1371.36 866.141 1338.67 898.742 1306.21 931.454 C 1296.45 941.287 1288.27 952.682 1278.05 963.018 L 1165.05 1076.28 C 1136 1105.38 1100.78 1144.42 1066.64 1167.08 C 1054.27 1174.48 1040.08 1174.56 1026.73 1175.24 C 993.693 1176.93 974.246 1152.68 952.287 1130.8 C 935.58 1114.25 919.016 1097.56 902.596 1080.73 L 768.639 947.065 C 734.048 911.578 677.337 878.055 718.111 819.585 C 733.583 797.398 767.483 789.197 790.969 801.941 C 816.159 815.61 837.94 841.297 858.498 860.948 C 909.007 913.216 961.092 964.065 1012.71 1015.19 C 1024.63 1026.99 1030.54 1035.69 1043.95 1021.52 C 1058.72 1005.91 1075.85 992.425 1091.18 977.369 C 1104.09 964.693 1114.76 950.637 1127.44 937.866 L 1307.3 757.748 L 1378.96 685.743 C 1392.14 672.51 1405.67 658.286 1419.7 646.073 C 1426.02 640.578 1437.14 636.706 1445.46 635.271 z"/>
<path transform="translate(0,0)" fill="rgba(0, 0, 0, 1)" d="M 1007.96 419.834 C 1100.27 408.737 1184.13 474.522 1195.32 566.824 C 1206.51 659.126 1140.81 743.045 1048.52 754.334 C 956.097 765.64 872.026 699.824 860.817 607.386 C 849.608 514.948 915.511 430.946 1007.96 419.834 z"/>
<path transform="translate(0,0)" fill="rgba(0, 0, 0, 1)" d="M 246.743 1227.57 C 220.101 1224.09 194.694 1221.73 177.407 1199.12 C 151.924 1165.79 169.337 1113.68 213.204 1109.39 C 223.977 1108.42 236.899 1109.13 247.866 1109.15 L 312.866 1109.15 L 519.352 1109.15 L 676.435 1109.14 C 691.036 1109.14 705.905 1109.25 720.428 1109.13 C 746.161 1108.93 768.856 1106.97 785.858 1130.48 C 804.26 1155.91 794.845 1194.91 770.278 1212.91 C 755.442 1223.46 730.734 1222.04 713.248 1222.11 C 697.305 1222.16 681.27 1220.52 665.356 1220.07 C 654.119 1220.05 642.151 1221.72 630.716 1221.84 C 543.947 1222.72 457.14 1221.9 370.377 1222.36 C 366.318 1222.38 361.738 1221.66 361.44 1226.86 C 360.498 1240.56 360.84 1256.04 360.84 1269.73 L 360.878 1366.88 L 360.895 1554.77 C 360.906 1599.93 360.092 1646.04 364.911 1690.25 C 370.058 1737.48 419.732 1777.82 465.599 1781.61 C 497.75 1784.26 534.655 1781.97 561.429 1762.14 C 586.097 1743.92 602.569 1716.7 607.256 1686.39 C 610.093 1667.02 608.907 1622.21 608.883 1601.58 L 608.747 1458.05 C 608.54 1427.45 601.176 1373.77 628.494 1354.27 C 638.975 1346.78 645.633 1341.94 658.746 1341.51 C 680.484 1339.58 700.706 1345.53 714.269 1363.71 C 729.963 1384.74 724.978 1417.48 724.804 1442.87 L 724.784 1599.22 C 724.819 1628.21 723.965 1658.07 725.838 1686.89 C 727.518 1712.73 735.211 1728.98 752.818 1747.02 C 771.989 1766.67 787.115 1778.54 815.345 1782.95 C 883.426 1793.78 951.192 1756.71 964.686 1686.35 C 966.499 1673.23 966.631 1659.23 966.979 1646.01 C 967.248 1635.78 969.654 1622.66 968.861 1612.79 C 964.578 1558.93 966.38 1503.69 965.995 1449.76 C 965.855 1430.14 964.756 1390.39 970.709 1373.58 C 985.505 1331.79 1046.33 1325.67 1071.19 1361.96 C 1087.67 1386.01 1082.58 1414.23 1082.52 1440.78 L 1082.75 1579.29 C 1082.77 1642.55 1073.2 1716.15 1130.23 1758.59 C 1145.69 1771.74 1161.85 1776.87 1181.64 1780.55 C 1207.84 1785.42 1254.44 1782.01 1276.91 1766.52 C 1338.59 1724.03 1330.25 1659.71 1330.14 1594.99 L 1330.13 1445.38 C 1330.12 1427.33 1328.02 1395.04 1331.71 1378.99 C 1341.99 1334.27 1411.35 1328.62 1434.98 1364.71 C 1447.92 1384.49 1443.92 1414.69 1443.85 1437.56 L 1443.84 1549.83 C 1443.83 1586.56 1441.11 1685.82 1452.15 1714.15 C 1465.71 1748.27 1495.65 1773.19 1531.67 1780.33 C 1623.6 1798.95 1694.73 1741.03 1694.78 1647.82 C 1694.79 1625.7 1694.83 1603.24 1694.78 1581.09 L 1694.73 1464.44 C 1694.74 1435.16 1696.25 1231.31 1693.34 1224.51 C 1684.11 1220.92 1636.45 1222.37 1623.85 1222.38 L 1427.11 1222.27 C 1395.95 1222.19 1309.68 1225.9 1285.79 1217.44 C 1274.58 1213.46 1264.84 1203.86 1260.19 1192.9 C 1253.99 1178.28 1254.95 1156.54 1261.07 1142 C 1266.84 1128.31 1277.88 1118.92 1291.52 1113.54 C 1297.89 1111.03 1304.63 1109.58 1311.47 1109.25 C 1334.73 1107.99 1368.43 1109.15 1392.44 1109.16 L 1551.95 1109.17 L 1733.59 1109.17 C 1765.04 1109.15 1796.63 1108.98 1827.9 1109.3 C 1851.33 1109.54 1870.75 1117 1879.09 1140.11 C 1890.06 1170.5 1875.8 1207.38 1844.4 1218.21 C 1834.85 1221.5 1812.94 1223.03 1807.4 1227.68 C 1806.14 1233.85 1806.88 1240.11 1807.03 1246.39 C 1807.63 1270.27 1807.5 1294.15 1807.5 1318.04 L 1807.35 1492.19 L 1807.39 1585.25 C 1807.29 1641.29 1807.43 1701.05 1789.28 1750.1 C 1759.29 1831.15 1692.12 1879.21 1610.11 1894.75 C 1606.98 1895.34 1605.4 1898.09 1604.12 1901 L 1534.27 1901 C 1531.44 1892.44 1513.81 1891.98 1504.98 1890.3 C 1454.54 1880.69 1420.76 1854.99 1384.44 1821.29 C 1357.64 1850.03 1335.67 1867.47 1298.86 1882.58 C 1283.96 1888.69 1271.02 1890.76 1256.51 1896.56 C 1254.96 1897.18 1253.26 1899.62 1252.31 1901 L 1160.43 1901 C 1158.81 1898.43 1157.85 1896.79 1154.84 1895.78 C 1142.47 1891.65 1126.6 1888.61 1114.6 1884.3 C 1082.55 1872.78 1042.54 1846.2 1022.57 1818.56 C 986.735 1858.72 951.242 1880.51 899.545 1893.59 C 894.453 1894.88 890.509 1896.17 887.965 1901 L 795.282 1901 C 789.912 1891.43 771.95 1892.48 762.264 1888.5 C 747.393 1882.4 728.741 1874.37 715.171 1865.92 C 699.815 1856.36 676.488 1835.7 664.934 1822.27 C 652.401 1830.93 643.245 1842.33 632.22 1851.59 C 608.947 1871.13 578.963 1884.55 549.482 1891.48 C 542.364 1893.16 534.991 1894.46 530.715 1901 L 441.659 1901 C 436.323 1892.43 421.287 1892.1 411.554 1889.41 C 354.669 1873.68 318.281 1845.86 286.07 1796.78 C 251.23 1743.7 248.107 1691.4 247.783 1629.61 C 247.656 1605.45 247.847 1581.34 247.778 1557.26 L 247.497 1306.29 L 247.354 1256.98 C 247.343 1247.83 247.84 1236.46 246.743 1227.57 z"/>
<path transform="translate(0,0)" fill="rgba(0, 0, 0, 1)" d="M 1003.52 0 L 1043.46 0 C 1047.29 6.56339 1056.33 7.73701 1063.41 10.0499 C 1120.15 28.5864 1164.41 77.1641 1208.56 115.291 L 1352.81 239.239 C 1371.32 255.437 1389.56 272.387 1408.52 288.156 C 1415.01 293.554 1420.97 300.133 1428.05 304.567 C 1432.19 304.993 1430.19 305.271 1434.19 303.328 C 1439.06 294.205 1437.53 267.681 1437.45 256.706 L 1437.27 136.673 C 1437.21 109.686 1432.67 66.0581 1446.32 43.041 C 1462.82 17.7005 1486.24 14.8714 1513.43 14.9287 C 1564.96 15.0374 1615.65 15.3153 1667.02 14.913 C 1701.52 14.6428 1738.04 4.64654 1770.33 22.5055 C 1786.5 31.5541 1798.37 46.684 1803.33 64.532 C 1807.62 80.1292 1807.9 107.326 1806.62 123.96 C 1804.08 156.906 1804.86 189.229 1804.85 222.252 L 1804.83 447.215 C 1804.84 486.662 1804.58 524.027 1806.76 563.344 C 1809.69 616.35 1813.62 618.357 1850.77 656.195 C 1882.62 688.635 1914.93 714.196 1949.82 742.923 C 1972.15 761.28 1994.2 779.984 2015.95 799.028 C 2034.5 815.113 2038.53 839.365 2048 847.468 L 2048 907.154 C 2041.48 912.812 2036.77 923.596 2033.05 931.448 C 2007.58 985.171 1958.58 983.251 1907.78 983.12 L 1842.47 983.079 L 1778.46 983.119 C 1756.33 983.122 1729.72 984.857 1709.54 974.724 C 1698.33 969.118 1689.86 959.23 1686.03 947.296 C 1681.87 934.509 1682.15 908.971 1688.81 897.461 C 1703.19 872.626 1729.74 869.228 1755.86 870.134 C 1768.6 870.575 1782.25 870.333 1795.01 870.386 L 1876.03 870.524 C 1884.38 870.525 1911.84 872.629 1915.25 864.718 C 1912.74 857.101 1891.97 841.751 1885.29 835.451 C 1828.36 781.715 1754.13 736.127 1712.07 669.391 C 1692.46 638.282 1694.7 586.007 1694.7 550.333 L 1694.71 474.72 L 1694.74 248.174 C 1694.75 232.502 1696.26 131.263 1692.85 126.322 C 1681.66 122.465 1560.6 123.652 1545.79 126.123 C 1545.23 139.373 1545.95 157.973 1545.94 171.778 L 1545.94 273.277 C 1545.89 341.219 1546.7 414.052 1466.79 436.247 C 1405.36 453.309 1374.8 412.546 1332.81 375.578 C 1254.64 306.767 1172.17 242.418 1096.79 170.399 C 1079.08 153.511 1047.83 129.044 1027.54 116.101 C 1011.06 125.081 1008.48 128.962 994.066 140.192 C 966.624 161.884 939.732 184.264 913.417 207.31 L 761.015 337.022 L 275.432 749.051 C 266.889 756.268 257.619 763.101 248.872 770.176 C 210.645 801.093 173.797 833.298 136.726 865.537 C 150.672 872.078 171.331 870.011 187.393 870.005 L 276.005 869.752 C 290.869 869.703 316.688 868.987 330.514 871.234 C 337.214 872.279 343.616 874.739 349.293 878.449 C 361.055 886.239 372.018 903.965 374.349 917.803 C 378.852 944.535 358.779 976.687 331.431 981.213 C 314.519 984.012 295.329 983.061 278.342 983.023 L 203.093 982.877 L 133.718 983.056 C 96.4306 983.149 65.3047 984.405 35.565 957.349 C 24.4349 947.223 16.732 931.69 11.1727 917.929 C 7.77085 909.508 7.83255 898.154 0 893.255 L 0 859.817 C 5.79634 856.114 7.15825 852.611 8.68115 846.066 C 14.2907 821.958 25.1488 806.84 44.4848 790.803 L 815.473 138.675 L 884.126 81.2011 C 920.713 50.0684 953.709 19.2992 999.589 4.72915 C 1001.18 4.22372 1002.76 1.39428 1003.52 0 z"/>
</g></svg></svg></svg>