<?xml version="1.0" encoding="utf-8"?>
<svg xmlns="http://www.w3.org/2000/svg" viewBox="-0.0027 0.01 202.6242 162.44" width="202.624px" height="162.44px">
  <defs>
    <style>
      .st0 {
        fill: #2b2831;
      }

      .st1 {
        fill: #6d38ad;
      }
    </style>
  </defs>
  <g>
    <path class="st1" d="M170.64,49.13l12.68,9.24c7.66,5.55,14.84,10.98,15.98,11.99,4.84,4.38,4.34,10.55-1.17,14.26-3.52,2.34-6.6,1.56-12.89-3.2-1.95-1.48-3.67-2.54-3.98-2.42-.47.2-.55,5.86-.55,38.32s-.08,38.28-.59,39.57c-.75,2.1-1.39,2.89-2.74,3.87s-1.44,1.03-2.18,1.29-1.15.38-2.04.38h-24.95c-17.34,0-26.8-.16-27.77-.43-1.91-.51-4.49-2.85-5.39-4.84-.66-1.41-.74-2.89-.74-16.48,0-10.39-.12-14.96-.43-14.96-.23,0-1.91,1.25-3.79,2.81-4.73,3.87-7.73,5.78-9.26,5.78s-3.79-1.45-8.16-5.31c-1.84-1.6-3.52-2.89-3.75-2.89-.27,0-.39,4.61-.39,14.22,0,16.52-.14,15.86-.99,17.81-1,1.9-3.87,4.31-6.04,4.31-1.89,0-25.79,0-25.79,0-23.79,0-27.3-.08-28.32-.63h-.02c-1.84-.94-3.75-2.93-4.57-4.77-.74-1.64-.78-2.77-.74-39.77.04-35.27,0-38.05-.63-38.05-.35,0-2.42,1.21-4.61,2.66-5.31,3.63-6.99,4.26-9.73,3.63-3.44-.78-5.94-3.16-6.84-6.6-.86-3.09.55-6.91,3.09-8.55,1.33-.86,2.81-1.95,7.03-5.35,1.17-.94,2.89-2.23,3.75-2.81,2.5-1.76,10-7.27,19.88-14.65,14.47-10.55,28.5-20.97,42.89-31.81,4.65-3.44,10.55-7.77,13.05-9.65,7.03-5.2,7.84-6.09,11.19-6.09,2.94,0,3.75.67,4.91,1.21,1.64,1.11,3.94,2.54,8.44,5.82M54.95,128.06c.23-18.44.27-19.06,2.58-23.83,3.39-5.5,7.79-8.76,14.15-9.31,5.25-1,9.94,1.17,14.06,4.23,1.13.9,4.96,4.45,8.48,7.89l6.41,6.25,1.21-1.02c.66-.55,3.79-3.48,6.91-6.48,7.23-6.88,9.53-8.59,12.66-9.49,2.18-.64,3.41-1.37,5.78-1.36,3.08,0,6.69-.21,9.41,1.21,4.61,2.34,8.13,6.48,9.8,11.56.82,2.46.86,3.44,1.09,19.96l.2,17.38h16.02v-79.26l-19.92-15c-28.83-21.68-41.95-31.33-42.7-31.33-.35,0-2.93,1.72-5.7,3.83-13.32,10-28.83,21.64-45.55,34.06l-11.29,8.4v39.49c-.04,21.72.08,39.61.23,39.77.16.12,3.79.2,8.09.16l7.85-.12.23-16.99h0Z"/>
    <path class="st1" d="M68.91,88.98c-12.99-3.42-15.25-21.12-3.81-27.97,10.83-6.74,25.17,2.44,23.15,15.15-1.08,8.84-10.55,15.28-19.15,12.86l-.19-.05Z"/>
    <path class="st1" d="M125.88,89c-12.51-2.66-16.19-19.3-6.07-27.06,9.59-7.72,24.58-1.08,25.02,11.28.67,9.77-9.22,18.12-18.75,15.82l-.19-.04Z"/>
  </g>
</svg>