<?xml version="1.0" encoding="utf-8"?>
<!DOCTYPE svg PUBLIC "-//W3C//DTD SVG 1.0//EN" "http://www.w3.org/TR/2001/REC-SVG-20010904/DTD/svg10.dtd">
<svg version="1.0" xmlns="http://www.w3.org/2000/svg" width="1000px" height="163px" viewBox="0 0 1000 163" preserveAspectRatio="xMidYMid meet">
 <g fill="#fefefe">
  <path d="M0 81.25 l0 -81.25 51.17 0 c48.48 0 51.17 0.04 51.17 0.70 0 0.43 -0.74 1.02 -1.99 1.64 -1.09 0.55 -2.81 1.60 -3.83 2.34 -1.02 0.74 -3.36 2.46 -5.16 3.79 -10.63 7.81 -19.88 14.73 -21.33 15.94 -0.90 0.74 -1.72 1.37 -1.84 1.37 -0.39 0 -7.42 5.27 -8.01 5.98 -0.27 0.35 -0.74 0.66 -0.98 0.66 -0.23 0 -1.33 0.78 -2.46 1.76 -1.09 0.98 -2.15 1.76 -2.34 1.76 -0.16 0 -1.21 0.74 -2.27 1.68 -1.09 0.94 -2.93 2.34 -4.10 3.09 -1.17 0.74 -6.17 4.41 -11.13 8.09 -9.88 7.38 -17.38 12.89 -19.88 14.65 -0.86 0.59 -2.58 1.88 -3.75 2.81 -4.22 3.40 -5.70 4.49 -7.03 5.35 -1.99 1.29 -3.20 3.55 -3.01 5.74 0.27 3.28 3.28 6.48 6.45 6.91 1.80 0.23 3.83 -0.70 8.48 -3.95 2.73 -1.91 3.32 -2.19 4.96 -2.19 l1.88 0 0 38.05 c-0.04 43.40 -0.31 39.77 3.55 43.32 1.25 1.17 2.30 2.34 2.30 2.58 0 0.31 -4.34 0.43 -15.43 0.43 l-15.43 0 0 -81.25z"/>
  <path d="M83.98 161.60 c0 -0.55 0.74 -1.60 1.95 -2.81 3.09 -3.05 3.13 -3.20 3.13 -19.61 l0 -14.18 1.56 0 c1.41 0 1.95 0.31 4.92 2.89 1.84 1.60 4.14 3.48 5.12 4.10 l1.80 1.21 1.56 -0.90 c0.86 -0.47 3.48 -2.38 5.78 -4.26 3.75 -3.05 4.45 -3.44 5.82 -3.44 l1.56 0 0 14.96 c0 16.95 0 16.80 3.16 19.53 2.42 2.07 2.62 2.23 3.09 2.23 0.20 0 0.39 0.27 0.39 0.59 0 0.51 -2.46 0.59 -19.92 0.59 l-19.92 0 0 -0.90z"/>
  <path d="M175.78 161.52 c0 -0.55 0.16 -0.98 0.31 -0.98 0.63 0 3.63 -2.81 4.30 -4.06 0.63 -1.13 0.66 -4.22 0.86 -39.88 l0.20 -38.67 1.64 -0.12 c1.48 -0.12 1.91 0.12 5.08 2.50 3.32 2.54 6.72 4.45 7.97 4.45 1.05 0 4.18 -2.27 5.39 -3.95 2.34 -3.20 1.84 -6.02 -1.68 -9.22 -1.13 -1.05 -8.32 -6.45 -15.98 -11.99 l-13.95 -10.16 0 -19.84 c0 -21.52 0.04 -20.90 -2.15 -22.97 -1.02 -0.98 -1.13 -0.98 -8.79 -1.09 -7.07 -0.12 -7.89 -0.04 -9.26 0.63 -0.82 0.43 -1.91 1.25 -2.46 1.84 l-0.98 1.05 -0.12 9.92 -0.12 9.92 -1.48 0 c-1.60 0 -0.51 0.78 -25.70 -17.81 -5.59 -4.10 -10.78 -7.89 -11.56 -8.40 -0.94 -0.63 -1.45 -1.25 -1.45 -1.80 l0 -0.90 447.07 0 447.07 0 0 29.69 0 29.69 -8.98 0 -8.98 0 -0.08 -12.58 -0.12 -12.62 -9.06 -0.12 -9.10 -0.08 0 4.77 c-0.04 12.30 -1.60 16.95 -6.56 19.30 -1.64 0.78 -3.01 1.09 -5.16 1.21 -1.60 0.08 -3.52 0.23 -4.18 0.35 l-1.29 0.20 0 8.75 0 8.79 7.38 0 7.42 0 0.12 22.19 c0.16 21.25 0.20 22.27 1.02 25.20 2.30 8.36 7.77 14.14 15.86 16.88 5.39 1.80 9.65 2.15 14.88 1.13 1.72 -0.31 3.95 -0.70 5 -0.82 l1.84 -0.23 0 10.43 0 10.39 -412.11 0 -412.11 0 0 -0.98z m218.79 -18.67 c7.77 -2.03 13.83 -5.31 19.22 -10.43 13.87 -13.13 17.46 -34.38 8.79 -51.76 -4.69 -9.34 -12.50 -16.68 -21.88 -20.55 -6.56 -2.70 -14.06 -3.83 -20.51 -3.13 -10.66 1.21 -19.77 5.59 -26.68 12.77 -5 5.20 -8.20 10.59 -10.27 17.15 -1.76 5.66 -2.03 7.50 -1.99 14.26 0.04 5.63 0.16 6.91 1.02 10.20 1.41 5.23 3.05 8.95 5.82 13.24 5.35 8.24 14.02 14.77 23.32 17.58 7.46 2.23 16.25 2.50 23.16 0.66z m77.89 0.86 c6.64 -0.78 11.72 -3.01 16.02 -7.03 2.15 -2.03 2.62 -2.30 4.06 -2.30 l1.60 0 0 3.71 0 3.71 9.49 -0.08 9.45 -0.12 0.12 -41.09 0.08 -41.13 -10.35 0 -10.35 0 0 25.78 c0 17.58 -0.16 26.41 -0.43 27.81 -1.60 7.54 -7.85 12.42 -16.02 12.42 -8.01 0 -13.28 -3.13 -15.59 -9.26 -1.25 -3.36 -1.52 -9.02 -1.52 -30.08 0 -10.27 0 -20.47 0 -22.66 l-0.04 -4.02 -10.16 0 -10.20 0 0.12 29.61 c0.16 32.58 0.08 31.25 2.66 37.03 4.10 9.14 12.66 15.78 22.27 17.34 1.60 0.23 3.20 0.51 3.52 0.59 1.13 0.23 1.80 0.20 5.27 -0.23z m95.51 -0.66 c10.23 -2.70 17.46 -9.14 20.51 -18.24 2.85 -8.48 0.82 -16.84 -5.63 -23.24 -4.92 -4.88 -10.43 -7.23 -23.75 -10.12 -11.91 -2.58 -13.79 -3.98 -13.79 -10.08 0.04 -6.68 4.18 -9.73 12.85 -9.41 3.91 0.12 4.45 0.23 6.91 1.48 3.01 1.56 5 3.83 6.17 7.03 0.39 1.09 0.82 1.95 0.98 1.95 0.74 -0.04 15.70 -3.44 15.86 -3.59 0.12 -0.08 -0.16 -1.17 -0.55 -2.38 -2.42 -7.03 -7.34 -12.89 -13.32 -15.78 -11.76 -5.78 -26.76 -4.96 -36.52 2.03 -5.08 3.59 -9.06 9.38 -10.55 15.23 -1.88 7.46 0.35 15.27 6.02 20.94 4.96 4.92 9.30 6.80 22.81 9.96 8.16 1.91 10.39 2.73 12.30 4.57 1.48 1.45 2.03 3.13 2.03 6.29 0 4.26 -2.42 7.46 -6.60 8.67 -3.09 0.94 -10.39 0.59 -13.40 -0.59 -3.95 -1.52 -7.03 -4.96 -8.48 -9.49 -0.59 -1.76 -0.74 -1.76 -4.96 -0.74 -1.72 0.43 -4.22 0.98 -5.63 1.25 -1.41 0.23 -3.48 0.70 -4.61 1.02 -2.38 0.63 -2.34 0.27 -0.43 5.12 4.06 10.35 13.20 16.91 26.33 18.98 2.81 0.43 12.54 -0.12 15.43 -0.86z m78.79 0.51 c10.47 -1.99 19.77 -7.73 25.08 -15.55 1.13 -1.68 4.41 -8.16 4.22 -8.36 -0.35 -0.31 -16.05 -4.77 -16.29 -4.61 -0.20 0.12 -0.94 1.29 -1.60 2.58 -2.30 4.30 -7.11 7.58 -12.97 8.83 -3.24 0.66 -8.95 0.47 -12.58 -0.51 -5.86 -1.52 -10.55 -5.23 -13.09 -10.47 -1.56 -3.16 -2.70 -8.09 -2.23 -9.38 0.23 -0.55 3.36 -0.63 30.39 -0.63 l30.12 0 -0.20 -6.91 c-0.27 -9.38 -1.33 -14.02 -4.77 -21.02 -5.66 -11.52 -16.72 -18.95 -30.47 -20.55 -11.45 -1.33 -23.79 3.05 -32.38 11.52 -9.96 9.80 -14.96 25.55 -12.50 39.41 0.66 3.91 2.50 9.65 3.98 12.58 5.98 11.88 17.73 20.66 30.82 23.01 4.10 0.74 10.66 0.74 14.45 0.04z m218.48 -0.59 c4.45 -1.25 8.71 -3.67 11.88 -6.72 2.38 -2.30 2.97 -2.66 4.22 -2.66 l1.41 0 0.27 3.05 c0.12 1.64 0.35 3.48 0.43 4.10 l0.23 1.05 8.98 -0.08 8.98 -0.12 -0.04 -27.89 c-0.08 -29.38 -0.20 -31.33 -1.91 -36.37 -2.62 -7.58 -7.38 -13.01 -14.34 -16.45 -12.85 -6.29 -30.31 -5.27 -41.45 2.42 -5.04 3.48 -8.55 7.89 -10.86 13.63 -2.27 5.59 -2.89 4.92 6.41 7.07 4.41 1.02 8.32 1.88 8.67 1.88 0.47 0.04 0.82 -0.47 1.13 -1.60 1.25 -4.80 4.38 -8.32 8.83 -10.16 2.03 -0.82 2.89 -0.90 8.52 -0.90 5.70 0 6.41 0.08 8.20 0.90 4.49 2.07 6.02 4.69 6.05 10.35 0 6.91 -0.47 7.19 -13.48 8.67 -7.62 0.86 -14.73 2.03 -17.97 2.97 -9.65 2.89 -16.25 8.55 -18.98 16.41 -1.29 3.67 -1.29 9.61 0 13.59 2.77 8.44 10.66 15.16 20.20 17.27 4.41 0.94 10.31 0.78 14.61 -0.43z m-590.23 -28.13 c0.20 -28.87 0.08 -27.23 2.30 -31.52 1.21 -2.42 4.22 -5.20 7.03 -6.52 2.19 -1.02 3.09 -1.17 6.68 -1.33 2.34 -0.08 5.08 0.04 6.29 0.27 4.73 0.98 8.40 4.38 10.16 9.38 l0.94 2.58 0.12 27.07 0.12 27.03 10.23 -0.08 10.23 -0.12 -0.16 -28.67 c-0.12 -25.55 -0.20 -29.06 -0.82 -32.07 -1.33 -6.56 -3.79 -11.17 -8.24 -15.63 -5.27 -5.31 -11.80 -7.93 -19.69 -7.93 -8.16 0 -15.20 2.27 -20.20 6.48 -1.91 1.64 -2.89 2.23 -3.79 2.23 l-1.21 0 0 -23.05 0 -23.05 -10.35 0 -10.35 0 0 60.94 0 60.94 10.27 -0.08 10.23 -0.12 0.20 -26.76z m435.55 3.05 c0 -13.16 0.20 -25.51 0.39 -27.46 0.66 -6.48 3.71 -10.94 9.38 -13.63 2.46 -1.17 2.73 -1.21 7.81 -1.21 4.22 0 5.63 0.16 7.03 0.70 3.55 1.45 5.90 4.10 7.54 8.40 0.82 2.19 0.86 2.66 0.98 29.69 l0.12 27.42 10.12 0 10.16 0 0 -25.55 c0 -15.43 0.16 -26.37 0.39 -27.62 0.98 -5.12 4.38 -9.65 8.91 -11.80 2.54 -1.21 2.81 -1.25 7.70 -1.25 5.94 0 7.93 0.59 10.63 3.05 1.95 1.80 2.89 3.20 3.87 5.94 0.70 1.80 0.74 3.95 0.94 29.49 l0.20 27.54 10.08 0.12 10.08 0.08 -0.12 -29.77 -0.16 -29.80 -1.02 -3.75 c-1.17 -4.30 -2.42 -6.95 -4.88 -10.39 -5.78 -8.20 -17.85 -12.58 -28.83 -10.47 -7.38 1.41 -13.67 5 -17.77 10.16 -1.84 2.30 -2.15 2.54 -3.44 2.54 -1.33 0 -1.56 -0.20 -2.62 -1.99 -1.56 -2.62 -5.70 -6.48 -8.59 -8.05 -3.28 -1.72 -7.54 -2.85 -11.91 -3.09 -3.52 -0.20 -4.41 -0.12 -10.35 1.25 -3.98 0.90 -11.02 5.35 -13.40 8.52 -0.90 1.21 -1.25 1.41 -2.42 1.29 l-1.37 -0.08 0.08 -4.41 0.12 -4.38 -9.88 0.08 -9.84 0.12 -0.12 41.13 -0.08 41.09 10.16 0 10.16 0 0 -23.91z m226.95 -17.30 l0 -41.21 -10.16 0 -10.16 0 0 1.48 c-0.23 17.62 -0.39 79.96 -0.23 80.39 0.16 0.47 1.91 0.55 10.39 0.55 l10.16 0 0 -41.21z m-4.92 -58.55 c2.50 -1.21 5.43 -4.26 6.60 -6.80 1.29 -2.81 1.17 -7.03 -0.23 -9.77 -3.32 -6.33 -9.80 -9.30 -15.59 -7.11 -4.96 1.84 -8.71 7.11 -8.71 12.11 0.04 3.16 1.05 5.51 3.55 8.20 4.34 4.61 9.38 5.82 14.38 3.36z"/>
  <path d="M376.37 124.45 c-7.03 -2.27 -12.30 -8.05 -14.06 -15.51 -0.90 -3.95 -0.82 -13.44 0.23 -17.15 2.11 -7.62 7.54 -13.52 14.34 -15.63 3.28 -1.02 10.98 -1.09 14.18 -0.16 7.50 2.23 12.73 7.89 14.84 16.09 0.94 3.67 1.02 12.19 0.16 16.29 -1.64 7.73 -6.95 13.79 -14.14 16.09 -4.10 1.29 -11.52 1.29 -15.55 -0.04z"/>
  <path d="M618.05 89.38 c0.51 -6.48 5.23 -12.73 11.56 -15.20 1.84 -0.70 3.24 -0.90 7.89 -1.05 5.04 -0.16 5.94 -0.08 8.20 0.70 6.95 2.30 11.72 8.63 11.72 15.63 l0 2.34 -19.77 0 -19.77 0 0.16 -2.42z"/>
  <path d="M859.06 128.87 c-3.05 -0.39 -6.09 -2.03 -7.54 -3.98 -1.37 -1.88 -2.07 -5.23 -1.80 -8.36 0.51 -5.20 3.40 -8.32 9.30 -9.88 2.07 -0.59 18.36 -2.73 20.59 -2.73 l1.64 0 0 3.83 c-0.04 8.32 -1.21 12.46 -4.49 16.05 -2.73 2.93 -6.25 4.61 -10.82 5.12 -3.55 0.43 -3.40 0.43 -6.88 -0.04z"/>
  <path d="M39.34 146.25 c-0.16 -0.16 -0.27 -18.59 -0.23 -40.94 l0 -40.66 11.29 -8.40 c16.72 -12.42 32.23 -24.06 45.55 -34.06 7.38 -5.55 5.94 -5.86 19.77 4.34 6.09 4.49 20.04 14.92 30.98 23.16 l19.92 15 0 40.78 0 40.82 -9.18 0 -9.18 0 -0.20 -17.38 c-0.23 -16.52 -0.27 -17.50 -1.09 -19.96 -1.68 -5.08 -5.23 -9.26 -9.80 -11.52 -1.72 -0.90 -2.85 -1.13 -5.47 -1.25 -1.84 -0.08 -3.63 0 -4.10 0.23 -0.43 0.23 -1.91 0.74 -3.28 1.13 -3.16 0.90 -5.63 2.77 -13.91 10.63 -5.90 5.63 -6.72 6.29 -7.93 6.29 -1.21 0 -1.99 -0.63 -7.73 -6.21 -7.66 -7.50 -9.69 -9.14 -13.36 -10.90 -2.42 -1.13 -3.24 -1.33 -5.43 -1.29 -1.41 0 -3.36 0.31 -4.30 0.63 -0.98 0.31 -1.99 0.59 -2.27 0.59 -0.31 0 -0.74 0.27 -1.02 0.59 -0.27 0.31 -0.82 0.59 -1.25 0.59 -1.17 0 -5.47 4.57 -6.68 7.03 -2.30 4.77 -2.34 5.39 -2.58 23.83 l-0.23 16.99 -9.02 0.12 c-4.96 0.04 -9.10 -0.04 -9.26 -0.16z m41.45 -59.38 c3.24 -1.64 5.35 -3.83 7.03 -7.19 0.90 -1.84 1.05 -2.66 1.05 -5.47 0 -2.85 -0.16 -3.63 -1.09 -5.55 -1.56 -3.20 -4.26 -5.90 -7.42 -7.38 -2.46 -1.13 -2.89 -1.21 -5.86 -1.05 -4.06 0.23 -6.21 1.17 -9.22 4.02 -3.16 3.01 -4.49 5.98 -4.53 9.96 0 3.63 1.17 6.41 3.95 9.41 2.23 2.34 4.30 3.63 7.19 4.45 3.05 0.82 5.51 0.51 8.91 -1.21z m55.78 0.23 c2.93 -1.45 6.05 -4.65 7.50 -7.70 0.86 -1.88 1.05 -2.81 1.05 -5.39 0 -2.66 -0.20 -3.48 -1.13 -5.47 -1.52 -3.09 -4.34 -5.82 -7.46 -7.30 -2.34 -1.09 -2.81 -1.17 -5.98 -1.02 -3.98 0.16 -6.02 0.98 -8.98 3.63 -3.40 3.05 -5.47 8.24 -4.77 11.95 0.90 4.61 4.22 9.06 8.28 11.05 4.22 2.07 7.54 2.11 11.48 0.23z"/>
  <path d="M988.67 124.65 c-1.91 -0.59 -3.48 -1.60 -4.49 -2.97 -2.11 -2.70 -2.15 -3.36 -2.15 -24.69 l0 -19.65 8.98 0 8.98 0 0 23.83 0 23.83 -5.16 -0.04 c-2.85 0 -5.63 -0.16 -6.17 -0.31z"/>
 </g>
 <g fill="#2b2831">
  <path d="M375.98 144.73 c-9.41 -1.76 -17.11 -5.70 -23.48 -12.07 -5.47 -5.47 -9.22 -12.11 -11.41 -20.12 -0.90 -3.40 -1.02 -4.45 -1.02 -11.37 -0.04 -8.01 0.16 -9.57 1.99 -15.43 2.07 -6.56 5.27 -11.95 10.27 -17.15 7.11 -7.38 16.33 -11.72 27.38 -12.81 13.13 -1.33 25.78 2.85 34.92 11.48 9.10 8.59 13.87 20.08 13.87 33.32 0 7.81 -1.37 14.02 -4.49 20.47 -5.78 11.88 -15.20 19.53 -28.28 22.97 -4.77 1.29 -14.73 1.60 -19.77 0.70z m14.77 -21.41 c5.43 -1.72 9.65 -5.39 12.19 -10.59 1.80 -3.59 2.54 -7.23 2.54 -12.38 0 -11.60 -5.82 -20.27 -15.59 -23.16 -3.05 -0.90 -8.67 -0.82 -11.84 0.16 -6.80 2.11 -12.23 8.01 -14.34 15.63 -1.02 3.63 -1.13 10.98 -0.23 14.80 1.76 7.46 7.03 13.24 14.06 15.51 3.87 1.29 9.26 1.29 13.20 0.04z"/>
  <path d="M466.02 145.12 c-0.31 -0.08 -1.91 -0.35 -3.52 -0.59 -9.61 -1.56 -18.16 -8.20 -22.27 -17.34 -2.62 -5.78 -2.50 -4.34 -2.66 -38.20 l-0.12 -30.78 11.29 0 11.29 0 0.20 2.46 c0.08 1.33 0.12 11.56 0.08 22.73 -0.12 22.73 0.16 28.16 1.41 31.56 1.88 5 5.78 8.05 11.48 8.95 8.48 1.29 16.02 -3.83 17.77 -12.11 0.27 -1.41 0.43 -10.23 0.43 -27.81 l0 -25.78 11.52 0 11.52 0 -0.08 42.30 -0.12 42.27 -10.63 0.12 -10.66 0.08 0 -3.71 c0 -2.50 -0.16 -3.71 -0.43 -3.71 -0.23 0 -1.56 1.02 -2.89 2.30 -2.97 2.73 -5.66 4.34 -9.57 5.63 -3.95 1.33 -11.29 2.19 -14.06 1.64z"/>
  <path d="M551.37 145.08 c-14.65 -2.30 -23.91 -9.92 -27.70 -22.77 -0.35 -1.17 -0.63 -2.34 -0.63 -2.62 0 -0.55 2.93 -1.29 16.21 -4.10 2.89 -0.59 3.16 -0.51 3.71 1.33 1.37 4.57 4.49 8.13 8.52 9.69 3.05 1.17 8.20 1.45 11.17 0.59 5.86 -1.72 8.36 -8.28 4.69 -12.34 -1.84 -2.03 -4.02 -2.85 -12.58 -4.84 -13.48 -3.16 -17.85 -5.04 -22.77 -9.96 -4.77 -4.77 -6.64 -9.53 -6.64 -16.84 0 -4.88 0.63 -7.62 2.73 -11.91 2.77 -5.66 8.36 -10.70 14.45 -13.05 7.97 -3.09 18.13 -3.52 26.68 -1.17 7.93 2.19 14.18 7.07 17.54 13.83 1.72 3.36 3.44 8.59 3.01 8.98 -0.20 0.20 -17.89 4.10 -18.59 4.10 -0.16 0 -0.63 -0.94 -1.02 -2.11 -1.80 -5.23 -6.09 -8.40 -11.91 -8.75 -3.71 -0.20 -6.64 0.59 -8.83 2.38 -3.44 2.81 -3.87 7.97 -0.94 10.70 1.64 1.48 4.45 2.46 11.80 4.06 13.32 2.89 18.87 5.27 23.71 10.12 4.80 4.77 7.03 10.23 7.03 17.19 0 10.39 -5.74 19.41 -15.39 24.22 -5.16 2.54 -8.32 3.16 -16.25 3.32 -3.75 0.08 -7.34 0.04 -8.01 -0.04z"/>
  <path d="M631.13 144.69 c-8.83 -1.60 -17.58 -6.33 -23.59 -12.77 -7.89 -8.48 -11.84 -18.83 -11.84 -31.17 0 -23.20 14.38 -41.25 35.59 -44.69 9.18 -1.48 18.79 -0.04 26.52 3.95 10.47 5.39 17.23 14.65 20.12 27.50 0.47 1.99 0.74 5.51 0.86 11.05 l0.20 8.09 -30.08 0 c-16.56 0 -30.20 0.12 -30.27 0.31 -0.35 0.63 0.90 5.16 2.07 7.50 3.16 6.25 8.98 10.04 16.91 10.98 2.93 0.31 4.10 0.31 6.41 -0.20 5.86 -1.21 10.63 -4.53 13.13 -9.02 1.13 -2.07 1.45 -2.34 2.58 -2.46 1.64 -0.16 17.62 4.53 17.89 5.23 0.23 0.63 -2.11 6.09 -3.87 9.02 -1.72 2.89 -6.13 7.58 -9.06 9.65 -4.77 3.40 -10.78 5.94 -16.76 7.07 -3.87 0.74 -12.62 0.70 -16.80 -0.04z m25.12 -55.23 c0 -1.41 -1.33 -5.51 -2.27 -6.99 -2.38 -3.79 -5.31 -6.09 -9.45 -7.46 -3.44 -1.17 -10.31 -0.98 -13.75 0.35 -5.74 2.23 -10.55 8.05 -11.52 14.02 l-0.23 1.25 18.63 0 18.59 0 0 -1.17z"/>
  <path d="M849.45 144.57 c-9.53 -2.11 -17.42 -8.83 -20.20 -17.27 -0.82 -2.50 -0.94 -3.63 -0.94 -8.16 0.04 -4.45 0.16 -5.66 0.90 -7.77 2.81 -7.85 9.38 -13.52 19.02 -16.41 3.24 -0.94 10.35 -2.11 17.97 -2.97 12.54 -1.41 13.48 -1.95 13.48 -7.50 -0.04 -4.38 -1.95 -7.27 -6.05 -9.18 -1.72 -0.78 -2.54 -0.90 -7.03 -0.90 -4.38 0 -5.39 0.16 -7.34 0.90 -4.53 1.84 -7.66 5.47 -8.87 10.35 -0.39 1.48 -0.66 1.84 -1.33 1.84 -1.02 -0.04 -18.95 -4.14 -19.22 -4.41 -0.12 -0.12 0.16 -1.56 0.59 -3.20 3.16 -11.48 11.37 -19.49 23.20 -22.66 10.82 -2.93 23.79 -1.91 32.89 2.50 7.70 3.79 12.62 9.92 15.12 18.98 0.82 3.05 0.86 3.71 1.09 33.40 0.12 16.64 0.16 30.39 0.08 30.59 -0.08 0.16 -4.69 0.27 -10.23 0.27 l-10.08 0 -0.23 -1.05 c-0.08 -0.63 -0.31 -2.46 -0.43 -4.10 -0.16 -1.68 -0.39 -3.05 -0.51 -3.05 -0.16 0 -1.52 1.21 -3.05 2.66 -3.16 3.05 -7.38 5.43 -11.88 6.72 -4.30 1.25 -12.27 1.45 -16.95 0.43z m21.29 -18.44 c3.48 -1.60 6.56 -4.80 7.77 -8.01 1.41 -3.79 2.19 -13.05 1.09 -13.05 -1.41 0 -18.01 2.34 -19.41 2.73 -5.39 1.45 -8.40 4.30 -9.18 8.71 -0.39 2.11 0.39 5.39 1.68 7.19 3.13 4.30 11.48 5.43 18.05 2.42z"/>
  <path d="M982.11 144.10 c-10.78 -1.91 -18.13 -8.32 -20.86 -18.20 -0.82 -2.93 -0.86 -3.95 -1.02 -25.20 l-0.12 -22.19 -7.42 0 -7.38 0 0 -9.96 0 -9.92 1.29 -0.20 c0.66 -0.12 2.58 -0.27 4.18 -0.35 2.15 -0.12 3.52 -0.43 5.16 -1.21 4.96 -2.34 6.52 -6.99 6.56 -19.30 l0 -4.77 10.27 0.08 10.23 0.12 0.12 12.58 0.08 12.62 8.40 0 8.40 0 0 10.16 0 10.16 -8.40 0 -8.40 0 0 18.48 c0 20.04 0.08 20.82 2.15 23.55 0.55 0.74 1.76 1.72 2.66 2.23 1.45 0.78 2.19 0.86 6.84 0.86 l5.16 0 -0.08 9.57 -0.12 9.57 -2.93 0.70 c-3.44 0.82 -11.72 1.17 -14.77 0.63z"/>
  <path d="M253.13 80.86 l0 -62.11 11.52 0 11.52 0 0 23.09 0 23.05 2.66 -2.23 c5.27 -4.49 11.95 -6.52 21.37 -6.52 4.38 0 6.09 0.16 8.52 0.82 8.71 2.38 15.51 8.48 18.91 16.95 2.34 5.74 2.38 6.72 2.54 39.18 l0.12 29.69 -11.41 0.12 -11.41 0.08 -0.12 -27.03 -0.12 -27.07 -0.94 -2.58 c-2.38 -6.80 -7.73 -10.16 -15.35 -9.61 -6.56 0.43 -11.13 4.06 -13.91 10.98 -0.59 1.41 -0.70 4.73 -0.86 28.36 l-0.20 26.76 -11.41 0.12 -11.45 0.08 0 -62.11z"/>
  <path d="M689.14 100.70 l0.12 -42.30 11.09 -0.12 11.09 -0.08 -0.27 4.22 c-0.12 2.34 -0.12 4.34 0 4.49 0.16 0.12 0.78 -0.39 1.37 -1.17 2.58 -3.24 9.49 -7.62 13.44 -8.48 6.09 -1.37 6.80 -1.45 11.52 -1.25 8.09 0.31 13.20 2.23 17.97 6.72 1.41 1.33 3.09 3.32 3.71 4.41 0.66 1.09 1.29 1.99 1.45 1.99 0.12 0 1.13 -1.13 2.27 -2.54 6.88 -8.63 19.69 -12.58 32.38 -9.96 10.90 2.23 18.40 9.45 21.45 20.66 l1.02 3.75 0.16 30.98 0.12 30.94 -11.25 -0.08 -11.25 -0.12 -0.20 -27.54 c-0.20 -25.55 -0.23 -27.70 -0.94 -29.49 -1.41 -3.91 -3.79 -6.56 -7.07 -8.09 -1.64 -0.74 -2.62 -0.90 -6.05 -0.90 -3.79 0 -4.30 0.08 -6.72 1.25 -4.53 2.15 -7.93 6.68 -8.91 11.80 -0.23 1.25 -0.39 12.19 -0.39 27.62 l0 25.55 -11.33 0 -11.29 0 -0.12 -27.42 c-0.12 -27.03 -0.16 -27.50 -0.98 -29.69 -1.05 -2.77 -2.85 -5.43 -4.53 -6.72 -2.42 -1.84 -4.45 -2.38 -8.87 -2.38 -3.79 0 -4.30 0.08 -6.64 1.21 -5.66 2.70 -8.71 7.15 -9.38 13.63 -0.20 1.95 -0.39 14.30 -0.39 27.46 l0 23.91 -11.33 0 -11.33 0 0.08 -42.27z"/>
  <path d="M915.82 142.58 c-0.20 -0.35 -0.12 -61.45 0.12 -77.03 l0.12 -7.34 11.29 0 11.33 0 0 42.38 0 42.38 -11.29 0 c-6.88 0 -11.41 -0.16 -11.56 -0.39z"/>
  <path d="M923.16 43.98 c-2.34 -0.78 -4.06 -1.91 -6.13 -4.14 -2.81 -3.01 -3.55 -4.92 -3.55 -9.38 0 -3.44 0.12 -3.95 1.29 -6.33 2.46 -5.04 6.91 -7.81 12.58 -7.81 5.70 0 10 2.70 12.81 8.01 0.94 1.84 1.05 2.42 1.05 6.13 0 4.88 -0.66 6.68 -3.55 9.77 -2.66 2.85 -5.35 4.02 -9.49 4.18 -2.07 0.08 -3.98 -0.08 -5 -0.43z"/>
 </g>
 <g fill="#713aa0">
  <path d="M29.10 161.88 c-1.84 -0.94 -3.75 -2.93 -4.57 -4.77 -0.74 -1.64 -0.78 -2.77 -0.74 -39.77 0.04 -35.27 0 -38.05 -0.63 -38.05 -0.35 0 -2.42 1.21 -4.61 2.66 -5.31 3.63 -6.99 4.26 -9.73 3.63 -3.44 -0.78 -5.94 -3.16 -6.84 -6.60 -0.86 -3.09 0.55 -6.91 3.09 -8.55 1.33 -0.86 2.81 -1.95 7.03 -5.35 1.17 -0.94 2.89 -2.23 3.75 -2.81 2.50 -1.76 10 -7.27 19.88 -14.65 4.96 -3.67 9.96 -7.34 11.13 -8.09 1.17 -0.74 3.01 -2.15 4.10 -3.09 1.05 -0.94 2.11 -1.68 2.27 -1.68 0.20 0 1.25 -0.78 2.34 -1.76 1.13 -0.98 2.23 -1.76 2.46 -1.76 0.23 0 0.70 -0.31 0.98 -0.66 0.63 -0.74 7.62 -5.98 8.01 -5.98 0.16 0 0.90 -0.59 1.72 -1.29 0.78 -0.66 5.23 -4.06 9.88 -7.50 4.65 -3.44 10.55 -7.77 13.05 -9.65 7.03 -5.20 8.36 -5.86 11.88 -6.09 2.30 -0.12 3.16 0 3.71 0.43 0.43 0.35 4.45 3.32 8.95 6.60 4.53 3.32 9.88 7.23 11.91 8.75 9.69 7.23 16.13 11.88 16.45 11.88 0.16 0 0.35 -4.45 0.43 -9.92 l0.12 -9.92 0.98 -1.05 c0.55 -0.59 1.64 -1.41 2.46 -1.80 1.37 -0.70 2.19 -0.78 10.43 -0.66 8.91 0.12 8.91 0.12 9.96 1.09 2.19 2.07 2.15 1.45 2.15 22.97 l0 19.84 13.95 10.16 c7.66 5.55 14.84 10.98 15.98 11.99 4.84 4.38 4.34 10.55 -1.17 14.26 -3.52 2.34 -6.60 1.56 -12.89 -3.20 -1.95 -1.48 -3.67 -2.54 -3.98 -2.42 -0.47 0.20 -0.55 5.86 -0.55 38.32 0 33.52 -0.08 38.28 -0.59 39.57 -0.74 1.72 -1.80 2.93 -3.98 4.41 l-1.64 1.13 -26.29 0 c-17.34 0 -26.80 -0.16 -27.77 -0.43 -1.91 -0.51 -4.49 -2.85 -5.39 -4.84 -0.66 -1.41 -0.74 -2.89 -0.74 -16.48 0 -10.39 -0.12 -14.96 -0.43 -14.96 -0.23 0 -1.91 1.25 -3.79 2.81 -4.73 3.87 -7.73 5.78 -9.26 5.78 -1.52 0 -3.79 -1.45 -8.16 -5.31 -1.84 -1.60 -3.52 -2.89 -3.75 -2.89 -0.27 0 -0.39 4.61 -0.39 14.22 0 16.52 0.04 16.37 -3.44 19.88 l-2.19 2.23 -27.19 0 c-23.79 0 -27.30 -0.08 -28.32 -0.63z m27.58 -33.75 c0.23 -18.44 0.27 -19.06 2.58 -23.83 1.13 -2.38 5.51 -7.03 6.60 -7.03 0.35 0 0.98 -0.23 1.29 -0.55 1.52 -1.29 8.95 -2.42 11.88 -1.80 2.42 0.51 5.86 2.27 8.44 4.30 1.13 0.90 4.96 4.45 8.48 7.89 l6.41 6.25 1.21 -1.02 c0.66 -0.55 3.79 -3.48 6.91 -6.48 7.23 -6.88 9.53 -8.59 12.66 -9.49 1.37 -0.39 2.81 -0.90 3.28 -1.09 0.47 -0.23 2.70 -0.35 5.27 -0.27 3.95 0.12 4.69 0.23 6.64 1.21 4.61 2.34 8.13 6.48 9.80 11.56 0.82 2.46 0.86 3.44 1.09 19.96 l0.20 17.38 8.01 0 8.01 0 0 -39.65 0 -39.61 -19.92 -15 c-28.83 -21.68 -41.95 -31.33 -42.70 -31.33 -0.35 0 -2.93 1.72 -5.70 3.83 -13.32 10 -28.83 21.64 -45.55 34.06 l-11.29 8.40 0 39.49 c-0.04 21.72 0.08 39.61 0.23 39.77 0.16 0.12 3.79 0.20 8.09 0.16 l7.85 -0.12 0.23 -16.99z"/>
  <path d="M70.70 89.26 c-1.17 -0.35 -2.85 -1.02 -3.71 -1.56 -2.27 -1.33 -5.16 -4.57 -6.37 -7.15 -0.94 -1.95 -1.05 -2.70 -1.05 -6.33 0 -3.71 0.12 -4.34 1.13 -6.52 1.33 -2.89 4.77 -6.37 7.54 -7.66 1.48 -0.63 2.85 -0.86 6.25 -0.98 4.26 -0.16 4.45 -0.12 7.03 1.09 9.34 4.34 11.76 16.64 4.84 24.65 -1.02 1.17 -2.58 2.30 -4.49 3.28 -2.54 1.29 -3.40 1.52 -5.98 1.64 -1.91 0.08 -3.83 -0.12 -5.20 -0.47z"/>
  <path d="M127.73 89.45 c-6.25 -1.33 -11.09 -6.56 -12.19 -13.13 -1.05 -6.33 2.62 -13.32 8.59 -16.25 1.52 -0.74 2.58 -0.94 6.45 -1.02 4.41 -0.16 4.69 -0.12 7.11 1.05 3.13 1.45 5.94 4.18 7.46 7.27 1.05 2.15 1.13 2.70 1.13 6.64 0 3.87 -0.12 4.53 -1.05 6.56 -1.45 3.05 -4.57 6.25 -7.54 7.73 -2.70 1.33 -6.80 1.80 -9.96 1.13z"/>
 </g>
</svg>