<?xml version="1.0" encoding="UTF-8"?>
<svg id="Layer_1" xmlns="http://www.w3.org/2000/svg" version="1.1" viewBox="0 0 998.47 162.44">
  <!-- Generator: Adobe Illustrator 30.5.1, SVG Export Plug-In . SVG Version: 2.1.4 Build 3)  -->
  <defs>
    <style>
      .st0 {
        fill: #2b2831;
      }

      .st1 {
        fill: #6d38ad;
      }
    </style>
  </defs>
  <g>
    <path class="st0" d="M374.44,145.45c-9.41-1.76-17.11-5.7-23.48-12.07-5.47-5.47-9.22-12.11-11.41-20.12-.9-3.4-1.02-4.45-1.02-11.37-.04-8.01.16-9.57,1.99-15.43,2.07-6.56,5.27-11.95,10.27-17.15,7.11-7.38,16.33-11.72,27.38-12.81,13.13-1.33,25.78,2.85,34.92,11.48,9.1,8.59,13.87,20.08,13.87,33.32,0,7.81-1.37,14.02-4.49,20.47-5.78,11.88-15.2,19.53-28.28,22.97-4.77,1.29-14.73,1.6-19.77.7h.02ZM389.21,124.04c5.43-1.72,9.65-5.39,12.19-10.59,1.8-3.59,2.54-7.23,2.54-12.38,0-11.6-5.82-20.27-15.59-23.16-3.05-.9-8.67-.82-11.84.16-6.8,2.11-12.23,8.01-14.34,15.63-1.02,3.63-1.13,10.98-.23,14.8,1.76,7.46,7.03,13.24,14.06,15.51,3.87,1.29,9.26,1.29,13.2.04h0Z"/>
    <path class="st0" d="M464.48,145.84c-.31-.08-1.91-.35-3.52-.59-9.61-1.56-18.16-8.2-22.27-17.34-2.62-5.78-2.5-4.34-2.66-38.2l-.12-30.78h22.58l.2,2.46c.08,1.33.12,11.56.08,22.73-.12,22.73.16,28.16,1.41,31.56,1.88,5,5.78,8.05,11.48,8.95,8.48,1.29,16.02-3.83,17.77-12.11.27-1.41.43-10.23.43-27.81v-25.78h23.04l-.08,42.3-.12,42.27-10.63.12-10.66.08v-3.71c0-2.5-.16-3.71-.43-3.71-.23,0-1.56,1.02-2.89,2.3-2.97,2.73-5.66,4.34-9.57,5.63-3.95,1.33-11.29,2.19-14.06,1.64h.02Z"/>
    <path class="st0" d="M549.83,145.8c-14.65-2.3-23.91-9.92-27.7-22.77-.35-1.17-.63-2.34-.63-2.62,0-.55,2.93-1.29,16.21-4.1,2.89-.59,3.16-.51,3.71,1.33,1.37,4.57,4.49,8.13,8.52,9.69,3.05,1.17,8.2,1.45,11.17.59,5.86-1.72,8.36-8.28,4.69-12.34-1.84-2.03-4.02-2.85-12.58-4.84-13.48-3.16-17.85-5.04-22.77-9.96-4.77-4.77-6.64-9.53-6.64-16.84,0-4.88.63-7.62,2.73-11.91,2.77-5.66,8.36-10.7,14.45-13.05,7.97-3.09,18.13-3.52,26.68-1.17,7.93,2.19,14.18,7.07,17.54,13.83,1.72,3.36,3.44,8.59,3.01,8.98-.2.2-17.89,4.1-18.59,4.1-.16,0-.63-.94-1.02-2.11-1.8-5.23-6.09-8.4-11.91-8.75-3.71-.2-6.64.59-8.83,2.38-3.44,2.81-3.87,7.97-.94,10.7,1.64,1.48,4.45,2.46,11.8,4.06,13.32,2.89,18.87,5.27,23.71,10.12,4.8,4.77,7.03,10.23,7.03,17.19,0,10.39-5.74,19.41-15.39,24.22-5.16,2.54-8.32,3.16-16.25,3.32-3.75.08-7.34.04-8.01-.04h.01Z"/>
    <path class="st0" d="M629.59,145.41c-8.83-1.6-17.58-6.33-23.59-12.77-7.89-8.48-11.84-18.83-11.84-31.17,0-23.2,14.38-41.25,35.59-44.69,9.18-1.48,18.79-.04,26.52,3.95,10.47,5.39,17.23,14.65,20.12,27.5.47,1.99.74,5.51.86,11.05l.2,8.09h-30.08c-16.56,0-30.2.12-30.27.31-.35.63.9,5.16,2.07,7.5,3.16,6.25,8.98,10.04,16.91,10.98,2.93.31,4.1.31,6.41-.2,5.86-1.21,10.63-4.53,13.13-9.02,1.13-2.07,1.45-2.34,2.58-2.46,1.64-.16,17.62,4.53,17.89,5.23.23.63-2.11,6.09-3.87,9.02-1.72,2.89-6.13,7.58-9.06,9.65-4.77,3.4-10.78,5.94-16.76,7.07-3.87.74-12.62.7-16.8-.04h0ZM654.71,90.18c0-1.41-1.33-5.51-2.27-6.99-2.38-3.79-5.31-6.09-9.45-7.46-3.44-1.17-10.31-.98-13.75.35-5.74,2.23-10.55,8.05-11.52,14.02l-.23,1.25h37.22v-1.17Z"/>
    <path class="st0" d="M847.91,145.29c-9.53-2.11-17.42-8.83-20.2-17.27-.82-2.5-.94-3.63-.94-8.16.04-4.45.16-5.66.9-7.77,2.81-7.85,9.38-13.52,19.02-16.41,3.24-.94,10.35-2.11,17.97-2.97,12.54-1.41,13.48-1.95,13.48-7.5-.04-4.38-1.95-7.27-6.05-9.18-1.72-.78-2.54-.9-7.03-.9s-5.39.16-7.34.9c-4.53,1.84-7.66,5.47-8.87,10.35-.39,1.48-.66,1.84-1.33,1.84-1.02-.04-18.95-4.14-19.22-4.41-.12-.12.16-1.56.59-3.2,3.16-11.48,11.37-19.49,23.2-22.66,10.82-2.93,23.79-1.91,32.89,2.5,7.7,3.79,12.62,9.92,15.12,18.98.82,3.05.86,3.71,1.09,33.4.12,16.64.16,30.39.08,30.59-.08.16-4.69.27-10.23.27h-10.08l-.23-1.05c-.08-.63-.31-2.46-.43-4.1-.16-1.68-.39-3.05-.51-3.05-.16,0-1.52,1.21-3.05,2.66-3.16,3.05-7.38,5.43-11.88,6.72-4.3,1.25-12.27,1.45-16.95.43h0ZM869.2,126.85c3.48-1.6,6.56-4.8,7.77-8.01,1.41-3.79,2.19-13.05,1.09-13.05-1.41,0-18.01,2.34-19.41,2.73-5.39,1.45-8.4,4.3-9.18,8.71-.39,2.11.39,5.39,1.68,7.19,3.13,4.3,11.48,5.43,18.05,2.42h0Z"/>
    <path class="st0" d="M980.57,144.82c-10.78-1.91-18.13-8.32-20.86-18.2-.82-2.93-.86-3.95-1.02-25.2l-.12-22.19h-14.8v-19.88l1.29-.2c.66-.12,2.58-.27,4.18-.35,2.15-.12,3.52-.43,5.16-1.21,4.96-2.34,6.52-6.99,6.56-19.3v-4.77l10.27.08,10.23.12.12,12.58.08,12.62h16.8v20.32h-16.8v18.48c0,20.04.08,20.82,2.15,23.55.55.74,1.76,1.72,2.66,2.23,1.45.78,2.19.86,6.84.86h5.16l-.08,9.57-.12,9.57-2.93.7c-3.44.82-11.72,1.17-14.77.63h0Z"/>
    <path class="st0" d="M251.59,81.58V19.47h23.04v46.14l2.66-2.23c5.27-4.49,11.95-6.52,21.37-6.52,4.38,0,6.09.16,8.52.82,8.71,2.38,15.51,8.48,18.91,16.95,2.34,5.74,2.38,6.72,2.54,39.18l.12,29.69-11.41.12-11.41.08-.12-27.03-.12-27.07-.94-2.58c-2.38-6.8-7.73-10.16-15.35-9.61-6.56.43-11.13,4.06-13.91,10.98-.59,1.41-.7,4.73-.86,28.36l-.2,26.76-11.41.12-11.45.08v-62.11l.02-.02Z"/>
    <path class="st0" d="M687.6,101.42l.12-42.3,11.09-.12,11.09-.08-.27,4.22c-.12,2.34-.12,4.34,0,4.49.16.12.78-.39,1.37-1.17,2.58-3.24,9.49-7.62,13.44-8.48,6.09-1.37,6.8-1.45,11.52-1.25,8.09.31,13.2,2.23,17.97,6.72,1.41,1.33,3.09,3.32,3.71,4.41.66,1.09,1.29,1.99,1.45,1.99.12,0,1.13-1.13,2.27-2.54,6.88-8.63,19.69-12.58,32.38-9.96,10.9,2.23,18.4,9.45,21.45,20.66l1.02,3.75.16,30.98.12,30.94-11.25-.08-11.25-.12-.2-27.54c-.2-25.55-.23-27.7-.94-29.49-1.41-3.91-3.79-6.56-7.07-8.09-1.64-.74-2.62-.9-6.05-.9-3.79,0-4.3.08-6.72,1.25-4.53,2.15-7.93,6.68-8.91,11.8-.23,1.25-.39,12.19-.39,27.62v25.55h-22.62l-.12-27.42c-.12-27.03-.16-27.5-.98-29.69-1.05-2.77-2.85-5.43-4.53-6.72-2.42-1.84-4.45-2.38-8.87-2.38-3.79,0-4.3.08-6.64,1.21-5.66,2.7-8.71,7.15-9.38,13.63-.2,1.95-.39,14.3-.39,27.46v23.91h-22.66l.08-42.27h0Z"/>
    <path class="st0" d="M914.28,143.3c-.2-.35-.12-61.45.12-77.03l.12-7.34h22.62v84.76h-11.29c-6.88,0-11.41-.16-11.56-.39h-.01Z"/>
    <path class="st0" d="M921.5,44.53c-8.59-2.64-12.27-14.11-7.07-21.38,5.81-8.86,19.77-7.61,24.01,2.04,5.16,10.81-5.26,23.14-16.76,19.4l-.18-.06Z"/>
  </g>
  <g>
    <path class="st1" d="M170.64,49.13l12.68,9.24c7.66,5.55,14.84,10.98,15.98,11.99,4.84,4.38,4.34,10.55-1.17,14.26-3.52,2.34-6.6,1.56-12.89-3.2-1.95-1.48-3.67-2.54-3.98-2.42-.47.2-.55,5.86-.55,38.32s-.08,38.28-.59,39.57c-.75,2.1-1.39,2.89-2.74,3.87s-1.44,1.03-2.18,1.29-1.15.38-2.04.38h-24.95c-17.34,0-26.8-.16-27.77-.43-1.91-.51-4.49-2.85-5.39-4.84-.66-1.41-.74-2.89-.74-16.48,0-10.39-.12-14.96-.43-14.96-.23,0-1.91,1.25-3.79,2.81-4.73,3.87-7.73,5.78-9.26,5.78s-3.79-1.45-8.16-5.31c-1.84-1.6-3.52-2.89-3.75-2.89-.27,0-.39,4.61-.39,14.22,0,16.52-.14,15.86-.99,17.81-1,1.9-3.87,4.31-6.04,4.31-1.89,0-25.79,0-25.79,0-23.79,0-27.3-.08-28.32-.63h-.02c-1.84-.94-3.75-2.93-4.57-4.77-.74-1.64-.78-2.77-.74-39.77.04-35.27,0-38.05-.63-38.05-.35,0-2.42,1.21-4.61,2.66-5.31,3.63-6.99,4.26-9.73,3.63-3.44-.78-5.94-3.16-6.84-6.6-.86-3.09.55-6.91,3.09-8.55,1.33-.86,2.81-1.95,7.03-5.35,1.17-.94,2.89-2.23,3.75-2.81,2.5-1.76,10-7.27,19.88-14.65,14.47-10.55,28.5-20.97,42.89-31.81,4.65-3.44,10.55-7.77,13.05-9.65,7.03-5.2,7.84-6.09,11.19-6.09,2.94,0,3.75.67,4.91,1.21,1.64,1.11,3.94,2.54,8.44,5.82M54.95,128.06c.23-18.44.27-19.06,2.58-23.83,3.39-5.5,7.79-8.76,14.15-9.31,5.25-1,9.94,1.17,14.06,4.23,1.13.9,4.96,4.45,8.48,7.89l6.41,6.25,1.21-1.02c.66-.55,3.79-3.48,6.91-6.48,7.23-6.88,9.53-8.59,12.66-9.49,2.18-.64,3.41-1.37,5.78-1.36,3.08,0,6.69-.21,9.41,1.21,4.61,2.34,8.13,6.48,9.8,11.56.82,2.46.86,3.44,1.09,19.96l.2,17.38h16.02v-79.26l-19.92-15c-28.83-21.68-41.95-31.33-42.7-31.33-.35,0-2.93,1.72-5.7,3.83-13.32,10-28.83,21.64-45.55,34.06l-11.29,8.4v39.49c-.04,21.72.08,39.61.23,39.77.16.12,3.79.2,8.09.16l7.85-.12.23-16.99h0Z"/>
    <path class="st1" d="M68.91,88.98c-12.99-3.42-15.25-21.12-3.81-27.97,10.83-6.74,25.17,2.44,23.15,15.15-1.08,8.84-10.55,15.28-19.15,12.86l-.19-.05Z"/>
    <path class="st1" d="M125.88,89c-12.51-2.66-16.19-19.3-6.07-27.06,9.59-7.72,24.58-1.08,25.02,11.28.67,9.77-9.22,18.12-18.75,15.82l-.19-.04Z"/>
  </g>
</svg>